<?xml version="1.0" encoding="UTF-8" standalone="no"?>
<svg
   xmlns:dc="http://purl.org/dc/elements/1.1/"
   xmlns:cc="http://creativecommons.org/ns#"
   xmlns:rdf="http://www.w3.org/1999/02/22-rdf-syntax-ns#"
   xmlns:svg="http://www.w3.org/2000/svg"
   xmlns="http://www.w3.org/2000/svg"
   xmlns:sodipodi="http://sodipodi.sourceforge.net/DTD/sodipodi-0.dtd"
   xmlns:inkscape="http://www.inkscape.org/namespaces/inkscape"
   version="1.1"
   x="0"
   y="0"
   width="255"
   height="485"
   viewBox="0 0 255 485"
   id="svg9270"
   sodipodi:docname="unspilledbeer.svg"
   inkscape:version="0.91 r13725">
  <metadata
     id="metadata9276">
    <rdf:RDF>
      <cc:Work
         rdf:about="">
        <dc:format>image/svg+xml</dc:format>
        <dc:type
           rdf:resource="http://purl.org/dc/dcmitype/StillImage" />
        <dc:title></dc:title>
      </cc:Work>
    </rdf:RDF>
  </metadata>
  <defs
     id="defs9274" />
  <sodipodi:namedview
     pagecolor="#ffffff"
     bordercolor="#666666"
     borderopacity="1"
     objecttolerance="10"
     gridtolerance="10"
     guidetolerance="10"
     inkscape:pageopacity="0"
     inkscape:pageshadow="2"
     inkscape:window-width="1916"
     inkscape:window-height="1035"
     id="namedview9272"
     showgrid="false"
     inkscape:zoom="0.68921901"
     inkscape:cx="-19.928554"
     inkscape:cy="209.09128"
     inkscape:window-x="4"
     inkscape:window-y="1"
     inkscape:window-maximized="1"
     inkscape:current-layer="g33038"
     fit-margin-top="0"
     fit-margin-left="0"
     fit-margin-right="0"
     fit-margin-bottom="0" />
  <g
     id="g9909"
     transform="translate(-111.0455,79.908716)">
    <g
       id="Layer_1">
      <g
         id="g33016"
         transform="matrix(0,-1,1,0,105.5265,402.1765)">
        <g
           id="g33038"
           transform="translate(2,4)">
          <g
             id="g33060"
             transform="translate(4,4)">
            <path
               inkscape:connector-curvature="0"
               style="opacity:0.31300001;fill:#969696;fill-opacity:1"
               id="path9223"
               d="m -4.9147907,130.97598 c 0,66.15844 27.4642497,120.1182 61.1400937,120.1182 33.675845,0 61.141077,-53.95976 61.141077,-120.1182 0,-66.159878 -27.465232,-120.119632 -61.141077,-120.119632 -33.674867,0 -61.1400937,53.959754 -61.1400937,120.119632" />
            <path
               d="M 64.448,214.543 C 29.959,214.543 2,166.855 2,108.031 2,49.208 29.959,1.52 64.448,1.52 l 0,-0.001 308.426,0 c 18.755,0 34.098,15.344 34.098,34.098 l 0,144.828 c 0,18.754 -15.343,34.098 -34.098,34.098 l -308.426,0"
               id="path9231"
               style="fill:#2af619;fill-opacity:1"
               inkscape:connector-curvature="0" />
            <path
               d="M 276.873,8.617 64.448,8.618 c -1.735,0 -3.467,0.15 -5.177,0.446 -8.367,1.451 -15.625,6.218 -21.66,12.364 -4.362,4.442 -6.46,9.894 -6.203,16.114 0.255,6.224 2.794,11.482 7.508,15.553 1.073,0.926 2.21,1.852 3.415,2.775 10.766,8.257 52.03,-6.162 84.541,-0.8 46.453,7.664 42.188,47.799 96.781,27.007 32.058,-12.21 86.624,-55.048 53.22,-73.459 l 0,-10e-4"
               id="path9233"
               style="fill:#48e83e;fill-opacity:1"
               inkscape:connector-curvature="0" />
            <path
               d="m 228.245,16.062 -163.797,0 c -0.847,0 -1.696,0.074 -2.529,0.219 -5.128,0.889 -9.698,4.33 -13.255,7.953 -1.351,1.378 -1.86,2.695 -1.781,4.624 0.08,1.942 0.686,3.196 2.155,4.465 0.574,0.494 1.157,0.977 1.746,1.449 3.871,0.705 13.727,-0.466 17.097,-0.848 11.509,-1.303 22.883,-2.899 34.474,-3.43 9.002,-0.413 18.131,-0.223 27.041,1.247 13.669,2.255 25.241,7.113 36.518,15.082 6.378,4.507 12.786,10.65 19.399,14.48 10.349,5.995 22.386,2.226 32.826,-1.749 6.617,-2.519 13.38,-6.089 19.682,-10.013 6.965,-4.339 10.09,-12.461 7.832,-20.35 -2.255,-7.888 -9.204,-13.129 -17.408,-13.129"
               id="path9235"
               style="fill:#5eed78;fill-opacity:1"
               inkscape:connector-curvature="0" />
            <path
               d="m 64.448,214.543 c -31.403,0 -57.389,-39.538 -61.79,-91.016 2.115,9.842 4.887,18.304 8.204,25.617 9.848,21.707 30.237,34.845 54.076,34.845 59.949,0 119.898,0 179.848,0 11.658,0 21.691,-4.36 29.646,-12.883 7.954,-8.524 11.61,-18.835 10.807,-30.467 -4.225,-61.121 16.468,-128.314 75.764,-128.294 -36.452,19.359 -45.687,60.225 -45.053,108.112 0.734,55.444 32.776,93.959 60.782,93.864 -1.267,0.145 -2.554,0.222 -3.858,0.222 l -308.426,0"
               id="path9237"
               style="fill:#5eda2a;fill-opacity:1"
               inkscape:connector-curvature="0" />
            <path
               d="m 390.584,204.582 c 34.396,0 62.451,-43.373 62.451,-96.551 0,-53.177 -28.055,-96.551 -62.452,-96.551 -34.395,0 -62.451,43.374 -62.451,96.551 0,53.178 28.056,96.551 62.452,96.551"
               id="path9239"
               inkscape:connector-curvature="0"
               style="fill:#adada9" />
            <path
               d="m 412.422,22.06 c 24.691,9.966 42.913,44.677 42.913,85.971 0,41.294 -18.222,76.006 -42.913,85.972 l 0,2.88 -14.558,0 c -31.74,0 -57.469,-39.781 -57.469,-88.852 0,-49.071 25.729,-88.851 57.469,-88.851 l 14.558,0 0,2.88"
               id="path9241"
               inkscape:connector-curvature="0"
               style="fill:#c7c7c2" />
            <path
               d="m 412.422,196.883 c 31.655,0 57.473,-39.914 57.473,-88.852 0,-48.937 -25.818,-88.851 -57.473,-88.851 -31.653,0 -57.471,39.914 -57.471,88.851 0,48.938 25.818,88.852 57.471,88.852"
               id="path9243"
               inkscape:connector-curvature="0"
               style="fill:#f4f4f2" />
            <path
               d="m 412.422,191.555 c 28.72,0 52.144,-37.52 52.144,-83.524 0,-46.003 -23.424,-83.523 -52.144,-83.523 -28.718,0 -52.143,37.52 -52.143,83.523 0,46.003 23.425,83.524 52.143,83.524"
               id="path9245"
               inkscape:connector-curvature="0"
               style="fill:#adada9" />
            <path
               d="m 405.046,190.72 c -25.303,-5.742 -44.767,-40.572 -44.767,-82.689 0,-42.117 19.464,-76.948 44.767,-82.687 25.305,5.739 44.768,40.57 44.768,82.687 0,42.117 -19.462,76.947 -44.768,82.689"
               id="path9247"
               inkscape:connector-curvature="0"
               style="fill:#e5e5e0" />
            <path
               d="m 402.372,125.175 c 10.052,0 18.198,19.864 18.198,34.673 0,14.814 -8.146,18.965 -18.198,18.965 -10.053,0 -18.201,-4.151 -18.201,-18.965 0,-14.809 8.148,-34.673 18.201,-34.673"
               id="path9249"
               inkscape:connector-curvature="0"
               style="fill:#2d2e2c" />
            <path
               d="m 207.762,50.463 c 40.733,0 64.312,30.491 64.312,71.224 0,40.733 -23.579,76.285 -64.312,76.285 -40.731,0 -83.195,-35.552 -83.195,-76.285 0,-40.733 42.464,-71.224 83.195,-71.224"
               id="path9251"
               inkscape:connector-curvature="0"
               style="fill:#f8c823" />
            <path
               d="m 162.627,183.989 82.159,0 c 0.658,0 1.312,-0.013 1.96,-0.042 -10.222,8.773 -23.335,14.025 -38.984,14.025 -15.622,0 -31.499,-5.235 -45.135,-13.983"
               id="path9253"
               inkscape:connector-curvature="0"
               style="fill:#f3b428" />
            <path
               d="m 156.094,66.909 c 19.371,13.368 28.066,30.209 67.559,15.168 8.444,-3.217 18.449,-8.559 27.997,-15.02 -10.788,-10.45 -25.609,-16.594 -43.888,-16.594 -18.192,0 -36.725,6.087 -51.668,16.446"
               id="path9255"
               inkscape:connector-curvature="0"
               style="fill:#fada3c" />
            <path
               d="m 177.518,55.891 c 2.574,2.005 5.169,3.89 7.795,5.412 10.349,5.995 22.386,2.226 32.826,-1.749 3.998,-1.523 8.053,-3.429 12.025,-5.566 -6.742,-2.294 -14.226,-3.525 -22.402,-3.525 -10.204,0 -20.516,1.916 -30.244,5.428"
               id="path9257"
               inkscape:connector-curvature="0"
               style="fill:#fdf07f" />
            <g
               transform="matrix(0,1.4187017,-1.8499458,0,653.20601,-55.565172)"
               id="text9823"
               style="font-style:normal;font-variant:normal;font-weight:normal;font-stretch:normal;font-size:40px;line-height:1.25;font-family:HGSoeiKakupoptai;-inkscape-font-specification:HGSoeiKakupoptai;letter-spacing:0px;word-spacing:0px;opacity:0.77100004;fill:#000000;fill-opacity:1;stroke:none"
               aria-label="BEER">
              <path
                 style="font-weight:bold"
                 d="m 87.992554,260.89285 c 0.508786,-10.2398 0.65001,-20.50924 1.775713,-30.7085 3.366531,-2.0375 7.453068,-0.76618 11.088303,-1.72643 3.54042,0.13017 6.06908,3.98482 5.42397,7.33066 1.02445,3.3308 -4.59301,6.07519 -2.136,9.05932 2.25012,2.26637 3.21172,5.91567 1.56566,8.79362 -1.88577,4.82088 -7.300804,7.32317 -12.265627,6.97935 -1.816867,0.10011 -3.63825,0.11746 -5.452019,0.27198 z m 5.78125,-6.25 c 3.204205,0.90583 7.474366,-2.74065 5.378929,-5.96081 -2.666802,-3.06956 -7.166192,1.05383 -5.261348,4.25988 -0.04152,0.56615 -0.203719,1.13046 -0.117581,1.70093 z m 0.46875,-11.25 c 2.985773,-1.23343 5.854366,-4.15589 5.322266,-7.62695 -2.31909,-3.44508 -6.938341,1.22433 -5.066377,4.17243 -0.0853,1.15151 -0.170593,2.30301 -0.255889,3.45452 z"
                 id="path9825"
                 inkscape:connector-curvature="0" />
              <path
                 style="font-weight:bold"
                 d="m 108.1488,260.89285 c 0.6254,-10.52768 1.35476,-21.04919 2.1875,-31.5625 5.15625,-0.26042 10.3125,-0.52083 15.46875,-0.78125 -0.15625,1.92708 -0.3125,3.85417 -0.46875,5.78125 -3.38542,0.26042 -6.77083,0.52083 -10.15625,0.78125 -0.15625,2.70833 -0.3125,5.41667 -0.46875,8.125 2.76042,-0.15625 5.52083,-0.3125 8.28125,-0.46875 1.30955,2.83984 -1.22964,7.28008 -4.60296,6.13453 -3.15804,-1.84244 -5.97075,4.78911 -2.01022,5.25371 2.85267,0.22398 6.76055,-2.07217 8.67743,1.0978 1.30516,3.03093 -2.45701,5.72696 -5.25328,4.95897 -3.90104,-0.26329 -7.75971,0.5925 -11.65472,0.67999 z"
                 id="path9827"
                 inkscape:connector-curvature="0" />
              <path
                 style="font-weight:bold"
                 d="m 128.1488,260.89285 c 0.6254,-10.52768 1.35476,-21.04919 2.1875,-31.5625 5.15625,-0.26042 10.3125,-0.52083 15.46875,-0.78125 -0.15625,1.92708 -0.3125,3.85417 -0.46875,5.78125 -3.38542,0.26042 -6.77083,0.52083 -10.15625,0.78125 -0.15625,2.70833 -0.3125,5.41667 -0.46875,8.125 2.76042,-0.15625 5.52083,-0.3125 8.28125,-0.46875 1.30955,2.83984 -1.22964,7.28008 -4.60296,6.13453 -3.15804,-1.84244 -5.97075,4.78911 -2.01022,5.25371 2.85267,0.22398 6.76055,-2.07217 8.67743,1.0978 1.30516,3.03093 -2.45701,5.72696 -5.25328,4.95897 -3.90104,-0.26329 -7.75971,0.5925 -11.65472,0.67999 z"
                 id="path9829"
                 inkscape:connector-curvature="0" />
              <path
                 style="font-weight:bold"
                 d="m 148.1488,260.7366 c 0.52083,-10.36458 1.04167,-20.72917 1.5625,-31.09375 4.30617,-0.59773 9.16833,-2.01508 13.12049,0.56346 3.5973,3.20688 3.37949,8.72907 1.73657,12.87271 -2.14782,1.96089 -4.24847,5.38431 -2.33578,8.17598 2.03911,1.73536 3.82406,4.75912 2.33254,7.39598 -1.95291,3.02269 -5.82534,0.69258 -5.65804,-2.45634 -0.69783,-2.06648 -1.31795,-6.2202 -4.25837,-5.68374 -2.41962,2.11186 -0.76666,5.41784 -0.90956,8.09073 -0.39291,2.78596 -3.58847,2.32563 -5.59035,2.13497 z m 5.625,-15.625 c 4.00142,-0.97621 7.63595,-5.16216 6.4312,-9.42837 -1.6975,-3.27954 -7.3832,-0.5497 -6.21233,2.82663 0.52977,2.1566 -0.28935,4.40728 -0.21887,6.60174 z"
                 id="path9831"
                 inkscape:connector-curvature="0" />
            </g>
          </g>
        </g>
      </g>
    </g>
  </g>
</svg>
