<?xml version="1.0"?>
<svg xmlns:rdf="http://www.w3.org/1999/02/22-rdf-syntax-ns#" xmlns="http://www.w3.org/2000/svg" xmlns:cc="http://web.resource.org/cc/" xmlns:xlink="http://www.w3.org/1999/xlink" xmlns:dc="http://purl.org/dc/elements/1.1/" xmlns:svg="http://www.w3.org/2000/svg" id="Layer_1" xml:space="preserve" viewBox="0 0 299.297 416.102" version="1.1" x="0px" y="0px" enable-background="new 0 0 299.297 416.102">
<polygon points="159.14 410.16 163.37 393.26 168.3 392.2 173.23 387.98 175.34 379.88 173.58 368.96 175.69 368.96 183.09 370.72 186.96 369.31 192.24 362.62 192.94 353.47 188.37 343.25 194.35 337.27 196.12 331.99 201.75 329.52 203.51 322.83 204.21 315.44 202.1 311.21 198.93 309.8 200.69 296.42 193.3 286.21 200.34 280.22 209.5 280.58 217.6 275.29 219.71 266.49 216.89 256.98 214.49 253.15 216.54 251.7 223.58 253.81 232.03 253.11 239.07 247.12 241.89 239.02 246.12 243.6 250.69 248.18 259.15 248.18 267.24 242.2 269.71 234.45 284.5 234.1 288.02 227.05 289.08 218.96 282.39 206.63 270.77 203.46 270.06 198.88 278.16 192.54 279.92 183.74 276.4 174.94 271.12 168.6 264.78 164.73 265.84 153.46 263.72 146.77 259.85 142.54 252.1 139.73 249.29 139.02 249.64 131.98 247.52 123.18 244 118.95 239.43 116.49 236.96 111.91 231.68 101.34 223.93 99.232 215.74 96.856 210.9 100.99 207.03 104.51 206.33 107.68 199.99 105.57 182.38 107.68 160.2 89.373 143.65 97.12 113.36 88.668 88.365 91.485 56.673 104.51 21.109 137.97 20.756 173.88 43.292 211.91 70.406 219.31 88.54 221.98 93.646 231.63 93.294 235.86 85.9 253.11 106.32 345.72 118.3 353.82 124.98 359.8 130.97 361.56 133.08 369.31 134.14 373.54 144 378.47 142.94 380.93 137.66 384.1 133.08 392.55 132.73 404.17 136.6 409.81 141.54 412.98 147.17 414.74" fill="#A654D6"/>
	<path d="m107.66 93.114c-0.237-1.841-2.191-1.966-2.079-4.157 1.104-0.004 2.374 0.157 2.91-0.416-1.756-5.634-3.468-11.114-4.157-16.627 2.063-0.296 2.217-0.337 3.741 0.416-1.559-7.265-0.458-14.559 1.663-20.369 7.555-1.351 10.478 5.239 14.964 8.314 2.273-1.053 0.771-5.88 3.741-6.235 5.725 1.757 9.341 5.624 12.471 9.977 1.711-0.09 1.16-2.443 3.741-1.663 0.568 1.787 0.026 4.685 0.832 6.235-6.562 3.276-9.968 9.708-13.302 16.212-1.93-1.811-3.303-4.179-4.157-7.067-5.986-4.96-7.131-14.761-13.302-19.537 3.493 10.917 10.76 21.663 16.627 31.592-0.759 1.042-1.024 2.579-2.079 3.326-2.524-0.077-8.015-6.462-11.639-1.663-0.74 0.23-1.727 0.214-2.079 0.832-0.658 0.035-1.585-0.2-1.663 0.416-2.33-0.131-3.68 0.735-6.22 0.414z" fill="#67831E"/>
	<path d="m174.59 87.294c1.104 0.257 2.379-2.876 4.988-2.494 1.941 6.811 3.703 13.766 2.91 21.2-3.002 1.017-5.311 2.729-8.729 3.325 2.272-11.741-6.343-15.694-12.055-20.784 2.194-3.762-0.752-10.794 1.247-14.133 1.554 0.247 1.802 1.8 2.908 2.494 0.256-1.685 2.367-1.513 2.08-3.741 3.86 3.07 6.13 7.725 6.65 14.138z" fill="#67831E"/>
	<path d="m140.92 99.765c-6.75-7.449 0.126-20.068 7.898-22.447 3.932 2.164 1.537 10.344 0.832 14.133-4.01 1.674-6.84 4.526-8.73 8.314z" fill="#67831E"/>
	<path d="m123.88 96.855c-2.017 1.031-0.459 5.638-3.741 5.404v-5.404c1.24-1.087 2.88-1.625 3.74-0.001z" fill="#67831E"/>
	<path d="m116.81 96.855c0.224 2.302-0.559 3.598-1.247 4.988h-0.416c-2.88-1.06-2.5-5.626 1.67-4.985z" fill="#67831E"/>
	<path d="m129.28 113.07h-1.247c-3.46-10.933 3.195-9.579 11.224-9.977 0.25 4.269-0.477 7.56-2.079 9.977h-3.326c-1.09-1.05-3.39-0.97-4.57 0z" fill="#67831E"/>
	<path d="m53.208 222.81c-0.104-2.322 1.678-2.758 2.079-4.574-3.407-2.271-8.153-3.209-13.718-3.322v-3.326c2.875-2.232 3.946 1.049 6.235 2.078 3.413 1.534 7.553 0.506 12.886 0.832 1.35-0.176 1.198-1.854 2.91-1.662 4.854 6.227 12.272 11.146 22.863 8.312 1.136 4.192-4.03 4.908-8.313 4.987v-2.493c-7.479-1.3-17.197 3.53-24.942-0.84z" fill="#67831E"/>
	<path d="m237.36 258.97c-1.117 1.02 0.859 2.979-0.414 4.156-3.752-1.791-8.153-2.934-9.562-7.066 9.42-0.143 12.628-6.494 14.551-14.133 8.578 3.703 7.607 14.463 9.975 24.109-0.91 0.471-1.381 1.391-2.49 1.662-4.37-2.57-7.23-6.64-12.07-8.73z" fill="#67831E"/>
	<path d="m201.61 281.83c1.586-0.877 4.141 0.836 6.232 0.832 0.322 1.969 2.895 6.449-0.415 7.064-0.177-0.867 0.284-1.102 0.415-1.662-3.1-1.04-4.83-3.47-6.23-6.23z" fill="#67831E"/>
	<path d="m195.79 286.82c4.123-5.729 6.952 3.579 12.055 3.323 0.042 3.506-6.303 0.625-6.649 3.742-2.6-1.54-3.57-4.74-5.4-7.06z" fill="#67831E"/>
	<path d="m64.847 228.21c-5.277-0.311-11.475-0.957-15.38-3.74-0.208-1.731 1.215-1.834 0.832-3.742-3.568-2.221-9.708-1.055-12.471-5.4 0.248-1.973 1.458-2.979 1.663-4.99-4.99-2.769-11.426-4.092-15.38-7.897 0.014-3.034 2.977-3.119 3.325-5.819 0.034-2.251-1.957-2.478-1.247-5.404-4.738-2.611-15.102-7.823-9.561-14.133-1.573-3.646-8.292-6.27-5.82-11.223-2.608-4.33-7.219-6.65-10.808-9.99 5.344-2 6.333-8.354 10.392-11.639 0.131-1.656-1.923-1.126-2.079-2.494 0.865-5.351 7.233-6.538 6.651-12.055 1.15-2.729 4.167-3.593 5.82-5.819 0.494-2.295-1.325-2.278-0.832-4.573 3.796-2.993 8.685-4.894 14.965-5.404-4.396-7.404 2.307-11.342 8.729-13.302 1.22-0.353-0.541-1.046 0-2.078 2.789-1.507 5.892-2.699 10.392-2.494 0.217-3.12 5.131-3.989 7.067-6.651 0.203-1.312-0.75-1.468-0.416-2.91 4.298-3.446 15.329-2.525 20.369-1.663 1.061-0.463-0.167-3.215 0.832-3.741 9.297 0.264 13.745 5.377 20.369 8.314 5.867-4.874-1.354-12.036-0.416-20.369 0.555-0.692 2.355-0.139 2.91-0.832 0.739-7.852 0.664-16.517 5.819-19.953 5.406 1.384 8.961 4.618 13.302 7.067 1.599-0.618 1.303-3.131 2.91-3.741 4.26 0.589 8.743 2.468 11.639 5.404 1.123 1.139 1.219 3.25 2.494 3.741 0.162 0.062 2.297-0.867 2.91-0.831 1.749 0.102 2.354 1.876 4.157 1.663-0.854-11.315 2.177-21.321 3.741-30.345-3.472-0.618-10.015 2.794-10.808 2.91-4.229 0.618-7.313-0.152-8.729-3.325-2.48-5.561 1.629-7.452 2.494-13.302 1.765-0.59 2.72-1.991 4.157-2.91 16.042 3.572 27.757-5.736 41.984-7.898 3.432-3.358 8.7-4.878 13.718-6.651 2.178 3.087 3.633 6.897 5.404 10.392-2.133 7.706-12.221 7.455-16.213 13.302-0.153 1.678 1.379 1.669 1.662 2.91 4.586 0.68 5.646 4.885 9.146 6.651 1.753 4.621 3.664 9.083 5.403 13.717 0.811 11.237 1.262 25.32-1.246 35.749-1.188 4.934-4.311 9.415-5.404 15.381 5.823-0.708 6.855-9.757 13.303-11.224 0.49 0.617 0.359 1.857 1.662 1.663 5.254-2.092 8.918-5.77 16.629-5.404 1.094 0.256 0.543 0.824 1.661 1.663 6.197 0.073 12.692-1.93 20.784-1.247v4.573c1.958 0.823 3.652-1.023 6.65-0.416 0.617 1.183 1.543 2.059 2.078 3.326 4.312 0.401 9.441-0.021 12.887 1.247 0.008 1.808 0.138 3.74-0.415 4.988 0.924 1.432 3.483 1.225 4.987 2.078 0.062 1.322 0.94 1.829 0.83 3.326 4.141 1.404 8.74 2.344 11.226 5.404-3.634 4.959-5.259 11.925-8.729 17.043-0.42 1.25 0.926 0.736 1.662 0.831-3.307 7.779-11.087 11.083-16.212 17.043 3.119 6.175 14.166 3.994 18.706 9.561 0.955 1.078-0.846 1.919-1.247 2.91 1.617 2.124 4.181 3.303 5.819 5.404 0.201 1.309-1.275 0.941-0.831 2.494 3.64 1.438 5.599 6.073 8.313 9.145 1.924 2.177 3.153 5.203-0.416 7.482 2.426 1.672 1.359 4.267 3.323 6.235-0.856 1.082-2.688 1.192-3.739 2.079-1.482 1.822 1.404 1.157 2.076 2.079 0.326 0.447-0.229 1.564 0 2.078 0.775 1.735 5.131 4.894 4.988 7.067-0.12 1.862-1.786 2.154-3.325 3.741 0.681 3.756 3 5.869 3.325 9.977-0.479 1.461-2.426 1.455-3.325 2.494 1.104 4.157 0.747 9.782 2.494 13.303-0.808 1.851-3.12-0.373-4.157 1.246 0.373 0.875 0.646 1.849 1.247 2.494 0.269 1.534-0.538 4.141 0.416 4.987-0.835 1.271 0.531 2.166-0.416 3.326-1.851 0.323-2.494-0.556-4.155-0.416-1.826 3.864-0.691 7.594-0.83 12.055-0.69 1.125-0.69 5.109 0 6.234-0.537 2.478 1.062 2.817 1.246 4.571-7.644-0.604-15.261 1.681-22.031 0.832-1.549 0.875 0.041 2.455-0.416 4.572-5.629 1.711-10.776-0.505-14.965-2.494-1.498 1.688-2.674 3.696-3.324 6.233-6.112-0.123-7.144-5.328-12.055-6.649-1.548-0.16-0.771 2.002-2.078 2.078-9.476-2.166-10.582-12.697-19.539-15.382-1.176-0.067 0.347 2.562-0.83 2.494 6.076 7.002 6.133 24.291-6.235 26.188 1.313 3.537 1.606 8.092 2.079 12.474-4.029 0.543-9.008 0.139-10.393 3.323 0.488 4.625-0.188 7.736-0.832 12.056 0.307 0.851 0.739-0.011 1.248 0.416 5.811 4.879 3.388 18.521-1.664 22.862-2.4-0.323-2.789 1.365-4.156 2.078-0.396 4.312-1.762 7.66-5.403 8.729 0.761 5.242 4.458 9.234 4.156 15.797-0.427 9.281-7.966 15.551-19.121 11.223 1.271 8.117 2.903 16.287-3.741 22.031-2.881 0.168-4.102 1.996-7.066 2.078 0.873 12.715-6.625 21.738-18.291 21.613-2.857-0.027-8.171-1.756-10.392-3.322-4.602-3.252-5.796-9.455-7.067-14.967 2.575-7.926 4.789-13.725 11.639-17.459-1.705-3.281-6.181-3.797-8.313-6.648-0.958-3.756-2.513-7.693-2.494-11.227-4.366-1.176-9.288-1.797-11.639-4.986-4.082-0.396-6.448 2.428-9.145 0-2.538 0.512-4.313 1.785-6.651 2.494-1.844 0.043-1.444-2.158-2.91-2.494-4.64 1.521-9.053 3.471-12.886 6.232-2.106 1.521-2.969 4.08-7.482 3.326 2.488-6.125 1.18-10.645-0.416-17.043-3.01-0.1-3.527 2.293-7.067 1.662-1.167-3.502-2.474-8.756-1.247-13.301-1.638-0.719-4.547-0.164-5.404-1.664-0.721-2.354 0.072-4.367 0.416-7.482-1.943-1.381-4.517-2.133-6.651-3.324-0.292-3.479 0.207-6.168 0.832-8.729-1.258-1.098-3.967-0.744-5.404-1.664 2.872-4.896-0.481-9.643 0-13.717-1.942-1.598-5.521 0.33-8.729 0v-7.48c-0.691-1.111-2.868-0.734-3.741-1.664 0.042-1.174 1.566-1.766 0.416-2.91-4.017-1.664-10.772-0.59-12.886-4.154 1.944-4.432 4.696-8.055 6.651-12.473-1.642-0.16-1.669-1.934-2.91-2.494 0.132-6.346 6.915-6.461 6.235-12.471 2.125-1.615 4.475-3.008 5.82-5.404 0.167-1.689-1.409-1.639-2.079-2.492 1.977-4.396 6.079-6.668 9.977-9.146 0.337-1.725-1.21-1.562-1.663-2.494 7.175-6.066 21.318-8.828 32.424-4.571 1.63 0.104 1.545-1.505 3.325-1.247 2.053 0.061 5.252 2.135 6.235-0.414-0.699-3.043-3.919-3.562-5.819-5.404-3.731 1.672-7.713 3.098-13.718 2.494-1.698 0.125 0.07-0.576-0.416-1.664-1.536 0.268-4.141-0.537-4.988 0.416-1.387-0.03-2.773-0.03-4.158-0.03zm129.69-167.94c0.846-11.299-3.329-21.573-11.225-26.604-0.756-0.482-2.326-0.183-2.493-1.663-0.946 0.301-2.123 0.371-2.909 0.831-2.341-0.708-2.725-3.373-5.82-3.325-0.842 0.821-0.988 2.336-1.662 3.325-0.535 0.573-1.806 0.412-2.91 0.416-5.435 9.218-8.387 23.227-3.324 34.086v4.573c2.179 1.307 2.859-0.884 4.988-0.832 4.061 1.899 4.635 7.282 7.065 10.808 2.099 0.283 3.034-0.843 4.572 0 3.094 5.255 2.556 12.72 4.987 17.875 5.444-8.05 7.744-20.1 8.729-30.345 0.68-2.086 0.68-7.058-0.01-9.145zm-76.9 31.177c3.625-4.799 9.115 1.586 11.639 1.663 1.055-0.747 1.319-2.284 2.079-3.326-5.868-9.929-13.134-20.675-16.627-31.592 6.17 4.776 7.316 14.577 13.302 19.537 0.854 2.888 2.227 5.256 4.157 7.067 3.334-6.503 6.74-12.936 13.302-16.212-0.806-1.55-0.263-4.448-0.832-6.235-2.582-0.78-2.03 1.572-3.741 1.663-3.13-4.353-6.746-8.219-12.471-9.977-2.97 0.355-1.468 5.183-3.741 6.235-4.486-3.075-7.41-9.665-14.964-8.314-2.121 5.81-3.222 13.104-1.663 20.369-1.524-0.752-1.678-0.712-3.741-0.416 0.689 5.514 2.401 10.993 4.157 16.627-0.536 0.573-1.806 0.412-2.91 0.416-0.112 2.191 1.841 2.316 2.079 4.157-1.064 0.599-2.932 0.393-3.741 1.247-0.1-0.593-0.685-0.701-0.832-1.247 0.255 0.121 1.601 1.034 1.663 0-0.324-0.092-0.483-0.348-0.416-0.832-1.121 0.191-3.718 0.514-2.91-0.832-1.873-0.256-3.805 0.47-3.741-0.831-2.458 0.823-6.074-0.421-7.066 2.078-0.052-0.918-1.764-0.176-2.494-0.416 0.419 1.25-0.926 0.737-1.663 0.832 0.494 1.74-0.632 1.861-2.078 1.663-1.594 2.979-3.988 5.157-4.573 9.145-0.132 0.964 0.067 1.596 0.416 2.079-1.232 0.604 0.547 1.621 0 2.91 0.612 3.544 1.913 6.4 4.572 7.898 0.923 1.294 2.631 1.803 4.573 2.079 0.459 1.064 2.232 0.816 3.741 0.831 1.425 0.021 3.787-0.347 4.988-1.663 0.194-2.187-0.006-2.198 0.832-3.741-0.217-2.711 1.451-3.537 2.079-5.404 0.324-0.092 0.483-0.348 0.416-0.832 0.599-0.232 1.014-0.648 1.247-1.247 0.023-0.253 0.062-0.492 0.416-0.416 1.665-1.522 3.397-2.977 6.235-3.326 0.706-1.56 1.075-3.068 0.416-4.988h-0.832c-0.1-0.594-0.685-0.701-0.832-1.247 2.06-1.682 5.048-2.435 8.729-2.494-0.038 1.134 0.692 0.836 0 1.663v0.832c-4.164-0.641-4.544 3.923-1.663 4.988v1.663c-0.07 0.484-0.657 0.451-1.247 0.416h-1.247c-1.257 0.129-3.233-0.461-3.326 0.832-2.775 0.55-3.765 2.886-5.819 4.157-1.663 2.079-3.239 4.244-3.741 7.482v1.663c0.06 0.491 0.74 0.942 0 1.247-1.083 1.111-0.083 3.665 0 4.988 1.36 6.815 4.783 11.568 11.639 12.886 1.482 1.047 4.789 0.369 5.404-0.832 1.833-0.662 4.285-0.703 4.988-2.494 0.712-0.535 1.635-0.86 1.663-2.079 0.919-0.328 1.041-1.454 1.663-2.079v-0.831c1.234-0.983 0.81-3.624 2.078-4.573 0.018-1.368 0.702-2.069 0.416-3.741v-1.248h0.416c0.031-0.724-0.093-1.293-0.416-1.663 0.533-0.546 0.533-1.532 0-2.079-0.556-0.734 0.337-2.062-0.832-2.91 0.022-0.715-0.32-1.066-0.832-1.247-1.54-4.524-5.096-7.591-9.145-7.482 0.464-0.966-0.089-1.113 0.832-2.079 1.499-2.062 1.089-4.926 2.078-6.651-0.253-0.023-0.492-0.062-0.416-0.416 0.511-2.035-1.433-1.615-1.247-3.326-0.16-0.006-0.3-0.006-0.44-0.006zm50.3-18.29c0.289 2.229-1.82 2.057-2.078 3.741-1.105-0.694-1.354-2.247-2.907-2.494-1.999 3.339 0.946 10.371-1.247 14.133 5.712 5.09 14.328 9.043 12.055 20.784 3.424-0.596 5.729-2.309 8.729-3.325 0.795-7.435-0.968-14.39-2.909-21.2-2.607-0.382-3.887 2.751-4.988 2.494-0.52-6.413-2.79-11.068-6.65-14.133zm-18.29 18.29c0.705-3.789 3.101-11.97-0.832-14.133-7.771 2.379-14.647 14.998-7.898 22.447 1.89-3.788 4.72-6.64 8.73-8.314zm-54.874-3.326c-1.91-3.064-7.098-4.172-11.224-3.741-0.234 1.64 1.742 3.219 0.416 4.572-5.56-2.016-13.562-3.765-19.537-0.831-0.256 1.78 1.354 1.695 1.247 3.325-1.745 1.719-5.857 1.07-7.066 3.326 0.022 0.531 0.533 0.576 0.416 1.247 1.791 0.565 3.798 0.913 3.741 3.325-5.917-0.385-8.023-1.559-13.718 0-0.219 1.518 1.825 1.867 0.832 2.91-6.69 0.1-10.805 2.774-13.718 6.651 0.158 3.86 3.923 4.114 5.404 6.651-5.808 1.675-13.478 1.487-17.875 4.573-0.072 2.566 2.658 2.331 2.91 4.572-1.901 1.979-5.625 2.135-7.482 4.157 0.093 0.786-0.469 0.917-0.416 1.663 2.135 0.082 3.795 0.639 4.573 2.079-4.604 1.354-9.102 2.814-10.808 7.066 1.363 1.27 3.576 1.689 4.573 3.326-0.871 2.265-3.95 1.927-5.819 3.325-2.119 1.584-5.384 6.689-5.404 8.314-0.074 5.961 8.72 5.22 11.224 9.977 0.483 2.284-2.787 0.815-2.91 2.494 0.716 6.35 7.116 7.017 9.561 11.639-1.221 1.366-3.446 0.638-4.572 1.247 0.784 7.529 10.207 6.42 14.133 10.808-0.078 1.723-2.113 1.49-2.91 2.494 0.831 0.833 2.111 1.214 2.494 2.494-0.978 2.347-4.104 2.546-4.572 5.404 2.599 3.361 8.487 5.644 13.302 5.404-3.84-5.053-3.15-13.57 0-18.706-3.182 0.076-5.244-2.521-8.313-1.247-0.962-3.038-4.538-3.486-6.651-6.651-3.728-5.583-1.709-15.743 1.663-20.369-6.327 0.07-15.216 0.557-15.796-3.741 5.037-0.464 8.699 0.446 12.471 1.247 1.35-2.74-0.965-5.125-1.247-7.898-0.611-6.011 2.207-10.209 4.988-13.717 3.527-1.307 4.518-2.92 7.898-3.326 5.884-0.706 10.337 2.613 13.718 2.494 3.56-0.125 6.115-3.254 8.314-5.404-1.386-3.464-4.351-5.349-3.741-10.808-3.58-2.101-6.71-4.652-11.224-5.819-0.746-1.071-1.037-1.998 0.416-2.494 2.889 1.96 5.828 3.872 9.977 4.572 2.085-2.487 4.082-5.063 5.404-8.313h2.079c2.177-5.723 11.198-3.294 16.212-3.326 1.916-5.843 4.425-11.094 10.808-12.47 0.164-0.715-0.617-1.066 0-1.247 1.59 0.636 5.23 0.115 6.229-1.218zm109.32 19.125c0.273-0.558 0.892-0.774 1.664-0.832 1.229-3.621 3.668-6.031 6.234-8.313 1.762 1.458 2.48-0.904 3.741-1.247 4.649-0.217 7.962 0.906 12.055 1.247 0.071 0.622-0.147 1.534 0.416 1.663 5.313-0.324 7.534 6.042 9.562 10.392 6.733-1.163 4.902-10.893 10.394-13.302-0.618 7.833-4.728 12.178-7.896 17.458 0.322 0.092 0.481 0.348 0.416 0.832 7.66 6.598 23.901-5.813 31.592-4.157-4.842 3.471-10.979 5.647-17.875 7.066 0.748 5.583 9.439 7.334 7.48 12.886-1.373-0.428-1.398-2.201-1.66-3.741-1.623-2.411-4.869-2.652-7.066-4.157-1.582-1.083-2.404-3.904-4.988-3.326 2.449 5.422 4.111 13.073 2.494 19.122 3.184-2.074 5.869 0.932 8.729 1.663 6.112-2.895 11.028-6.986 14.965-12.055-0.744-0.778-2.551-0.497-2.906-1.663 2.875-3.774 7.211-6.09 7.48-12.471 0.344-0.902 1.567-0.925 1.661-2.079 0.498-1.165 0.457-2.868 0.416-4.572-3.487-2.776-11.146-2.072-11.224-7.067-1.299-0.641-3.903 0.024-4.157-1.663 0.399-1.679 0.849-3.309 1.247-4.988-4.403 0.168-9.547-0.402-13.303 0.416-0.566-0.818-0.396-2.375-0.83-3.326-4.137-1.598-6.538 1.642-9.979 2.079-1.653-3.316 3.236-3.904 1.247-7.482-5.732 0.64-10.678 2.07-14.549 4.572-0.741-0.557-1.286-2.406-0.416-3.325-2.945 0.034-3.396 4.066-6.648 2.494 0.282-2.01 1.234-2.566-0.416-3.741-4.336 1.61-8.774 2.8-12.057 5.404-1.49 1.184-2.37 4.366-4.986 2.91-0.127-1.814 1.229-1.848 0.416-3.325-5.963 4.845-10.883 10.735-14.968 17.458 2.367 1.236 3.163 4.042 5.404 5.404 0.088-0.466 0.461-0.647 0.831-0.831 0.002 0.417-0.336 0.495-0.415 0.831 1.485 0.5 3.052-2.098 4.569-2.91 1.475 0.225 1.022-1.472 2.494-1.247 0.824 0.98 0.824-0.038 0-0.416h1.248c0.488 0.065 1.18-0.071 1.246 0.416-0.488 0.065-1.18-0.071-1.246 0.416 1.697 1.158 0.44 3.64 1.246 4.988 0.057 0.774 0.273 1.39 0.831 1.663 0.38 1.137 1.457-0.738 2.079 0.416h0.415c0.572-0.018 0.913 0.196 1.247 0.416 0.793 0.177 0.752 1.188 2.079 0.832h0.831c1.498 1.135 2.658 2.607 4.156 3.741 0.088 0.466 0.461 0.647 0.832 0.832-0.075 0.907 0.34 1.322 1.246 1.247v1.247c1.256 0.137 0.854 3.178 2.078 2.078-0.953 1.077-0.05 2.813 1.661 2.494 0.05-0.507 0.124-0.984 0.831-0.831 0.031-0.724-0.093-1.293-0.416-1.663 0.719 0.022 1.066-0.32 1.247-0.831-0.466-0.088-0.646-0.461-0.831-0.832 0.322-0.093 0.82-0.012 0.831-0.416 1.698-2.182 3.213-4.547 4.988-6.651 1.558 0.033 1.257-1.792 3.323-1.247v-0.831c1.789-0.288 3.08-1.868 2.078-3.741 0.022-0.531 0.533-0.576 0.416-1.247v-2.079h-0.416c-0.211-1.173-1.006-1.765-1.246-2.91-0.57-0.018-0.914 0.196-1.248 0.416-1.715-4.614-6.521-5.853-10.393-6.651 0.23-0.001 0.473 0.337 0 0.416-2.599-3.784-12.017 0.246-12.055 2.91-1.081-1.119-1.254 0.508-2.494 0.416 0.479 2.826-1.811 6.219-3.324 3.326-0.09-0.01-0.23-0.01-0.37-0.01zm-32.42-0.42c1.659-5.306-2.822-7.956-4.574-11.223-0.619 1.795-2.992-1.289-3.322-2.494-5.504-1.431-7.354-0.256-12.057 0-0.093 1.633-1.256 1.296-3.327 1.663 0.031 1.726-3.47 2.349-1.663 3.326h-2.079c-1.384 2.607-2.945 5.92-2.91 8.729v0.416c0.286 1.671-0.398 2.373-0.416 3.741 1.346 0.04 1.619 1.153 2.079 2.078v0.416c0.482 0.349 1.114 0.548 2.079 0.416 0.023 0.253 0.062 0.492 0.416 0.416 0.583 0.664 1.432 1.062 2.494 1.247 0.108 0.584 0.912 0.474 1.247 0.832v0.416c1.748 0.053 1.646 1.957 3.326 2.079 0.047 0.507 0.125 0.984 0.832 0.831-0.019 0.572 0.195 0.913 0.416 1.247v0.416c1.002 0.661 2.329 0.995 3.74 1.247 1.346-1.98 5.367-1.284 7.066-2.91v-0.831c1.396 0.29 1.361-0.854 2.078-1.247 0.467-0.088 0.646-0.461 0.832-0.832 0.32-0.092 0.479-0.348 0.414-0.832 0.606-0.361 1.315-0.622 1.248-1.663 0.729-0.38 1.441-0.773 1.246-2.079 0.899 0.07 0.188-1.474 0.416-2.078 1.163-0.408-0.604-1.109 0.414-1.663-0.01-0.59-0.01-1.15-0.01-1.7zm-51.55-9.975v5.404c3.282 0.234 1.724-4.373 3.741-5.404-0.85-1.625-2.49-1.087-3.74-0.001zm15.38 16.215h1.663c1.602-2.417 2.329-5.708 2.079-9.977-8.029 0.397-14.684-0.957-11.224 9.977h1.247v1.247c0.786 0.461 1.964 0.53 2.91 0.832 1.374 0.289 1.74 1.586 2.079 2.91-0.987 0.849-1.935-0.861-2.079 0.832h-0.416s-0.277 0-0.416 0c-1.378 2.849-1.326 5.247-3.326 7.898-0.521 2.601-1.02 3.881-0.416 6.235v1.663h0.416v0.832c2.025 9.046 9.211 17.717 19.953 14.133 0.253-0.023 0.492-0.062 0.416-0.416 2.427-0.759 4.405-1.969 5.405-4.157 3.217-3.453 4.575-15.218 0.83-18.29v-0.416c0.488-1.354-1.576-3.286-2.494-4.573 0.002-0.417-0.336-0.495-0.416-0.832v-0.416c-0.623-0.624-1.25-1.244-2.079-1.663h-0.416c-1.804-2.492-5.726-2.865-7.898-4.988-0.093 0.323-0.011 0.82-0.416 0.831-0.288-1.303-1.109-0.542-2.079-0.416-0.572-0.018-0.913 0.196-1.247 0.416-1.326-0.356-1.286 0.654-2.078 0.832-0.79-0.76-0.11-1.5 0.02-2.47zm-58.608 8.73c1.89-0.882 2.946-2.597 4.988-3.326-1.777-4.953-4.389-6.325-4.157-12.055-1.252-0.927-1.721-0.76-2.91 0-0.692-0.826 0.038-0.529 0-1.663-5.063-0.389-5.268 1.845-10.392 1.663-0.303 1.134 0.826 0.837 0.832 1.663-1.874 0.441-2.348 1.763-4.157 0.416-0.363 0.607-0.331 1.609-1.663 1.247-0.073 2.032-2.432 3.082-2.494 6.235v0.416c0.692 0.826-0.038 0.528 0 1.663 0.009 2.069 0.647 3.51 1.247 4.988 0.705 3.506 1.601 4.245 3.326 6.651h9.562s0.554 0 0.832 0h0.416s0.277 0 0.416 0c0.966-1.25 1.635-2.798 2.078-4.572 1.041-0.77 1.88-1.73 2.076-3.33zm117.64-1.25c1.005-1.127-0.456-2.308 0-4.157-1.756-0.259-1.527-0.923-1.247-2.494-4.323-4.462-9.997-6.454-15.796-2.91-0.598 0.364-1.963 2.539-4.157 2.078-0.471 3.486-3.019 4.397-3.325 7.067-0.709 1.957-0.584 3.893-0.416 5.819 1.438-0.337 1.756 0.776 2.494 0 0.615 0.481 1.049 0.481 1.663 0 0.062 0.769 1.407 0.255 1.663 0.832 0.447 1.215 2.878 0.447 3.325 1.663 1.544 1.781 3.351 3.302 4.987 4.988 0.192 0.942 1.051 3.347 1.662 2.494 1.235-0.148 2.107-0.662 2.91-1.247 1.645-1.404 3.057-3.041 4.155-4.988 0.584-0.108 0.476-0.912 0.831-1.247 1.45-2.21 1.49-5.11 1.27-7.89zm8.73-7.48c-2.515-0.294-3.071 1.363-4.988 1.663-0.258 1.821-1.079 3.079-1.247 4.988 3.45-0.7 7.84-2.25 6.24-6.65zm44.48 12.05c-0.681-2.922-3.515-3.691-4.572-6.235-5.041-1.73-10.786-1.433-13.303 2.91-0.253 0.023-0.492 0.062-0.415 0.416-2.281 1.184-2.686 4.244-3.741 6.651 0.574 1.557-0.472 2.323 0.415 3.741-0.132 0.964 0.067 1.596 0.416 2.078h2.91c3.729 1.258 6.68 3.296 9.977 4.988 0.813 1.403 1.94 2.493 3.741 2.91 1.659-0.973 2.951-2.313 3.741-4.157 0.021-0.531 0.532-0.576 0.415-1.247 0.952-0.71 0.983-2.342 1.247-3.741v-0.831c0.188-1.988 0.188-1.754 0-3.741 0.2-1.73-0.24-2.81-0.84-3.74zm-29.93 1.25c-0.373-2.26-2.371-2.894-2.908-4.988-0.54 0.407-3.02 0.589-1.663-0.832-2.884-1.285-8.565-2.318-12.056-0.832-3.008 2.811-5.525 6.114-6.65 10.808-0.141 2.347-0.959 4.995 0.416 6.651 0.553 4.574 3.174 7.08 6.65 8.729v0.416c1.506 0.712 3.396 1.037 5.818 0.832 0.738-0.369 1.057-1.161 2.493-0.832h1.247c0.896-1.043 2.423-1.457 3.325-2.494 0.278-0.965 1.381-1.113 1.659-2.078 0.086-1.58 1.748-1.578 1.664-3.326 1.09-1.543 1.711-3.555 1.662-6.235 0.334-1.442-0.619-1.598-0.416-2.91v-0.416c-0.229-0.74-0.213-1.727-0.83-2.079-0.02-0.26-0.06-0.5-0.41-0.42zm-132.19-5.82c-0.466-0.088-0.647-0.461-0.832-0.832-1.517-0.27-2.214 0.28-2.91 0.832-2.295 2.876-8.677 7.224-5.404 11.639 5.619 2.14 7.008 8.511 9.976 13.302 0.353-0.618 1.338-0.602 2.079-0.832 1.982 0.319 2.739-0.587 3.326-1.663 0.618-0.353 0.602-1.338 0.831-2.079-0.064-1.034 0.653-1.287 0.832-2.079 0.369-0.877 1.266-1.229 1.247-2.494 0.942-0.443 1.51-1.261 1.663-2.494h0.416c-0.312-1.421 1.689-0.528 1.247-2.079 2.356-1.605-0.981-4.101 0-5.82v-0.416c0.71-2.81-1.713-2.354-0.831-3.326h-3.742c-1.325-0.355-1.578 0.362-2.079 0.832v-0.416c-0.508-1.267-1.586 0.607-2.078-0.416-1.553 0.445-1.185-1.032-2.494-0.831-0.17-0.51-0.536-0.84-1.247-0.82zm80.229 5.82c1.438-0.084 0.758-2.292 1.248-3.326-0.594-0.1-0.701-0.685-1.248-0.832 0.002 0.417-0.336 0.495-0.414 0.832h-0.416c-0.774 0.057-1.393 0.273-1.664 0.832-0.715-0.022-1.064 0.32-1.246 0.831-0.622 0.071-1.534-0.148-1.662 0.416h-0.416s-0.277 0-0.416 0c-0.068 0.484-0.656 0.451-1.247 0.416 0.897 1.584-0.836 0.847-0.415 2.91 0.965 0.333 2.359 1.332 3.325 0.416 0.774-0.058 1.39-0.273 1.663-0.832 0.322-0.093 0.818-0.012 0.83-0.416 1.003 0.17 0.904-0.759 2.078-0.416 0.01-0.28 0.01-0.55 0.01-0.83zm17.46 11.64c-0.346-1.334-0.354-0.862 0.416-1.663-1.432-2.311-4.396-3.085-4.987-6.235-2.353-0.154-3.772-1.463-5.404-1.663-6.213-0.761-7.877 1.628-13.302 2.91 0.037 1.553 0.466 1.185 0 2.494v0.416c-0.484 0.07-0.451 0.657-0.416 1.247 0.204 1.867-0.211 3.115-0.415 4.572 0.131 2.487-1.824 2.887-1.663 5.404-0.584 0.108-0.475 0.912-0.831 1.247h-0.416c-0.274 1.25-1.598 1.451-1.247 3.325 2.689-0.421 2.715-1.348 6.235-1.247h1.663c0.792 0.177 0.752 1.188 2.078 0.832 1.994 0.777 3.457 2.085 5.404 2.91 0.844 0.68 1.146 1.898 2.491 2.079 0.245 0.863 0.802 1.417 1.662 1.663v0.416c2.052 0.93 3.255-2.557 5.404-2.91-0.423-0.005-0.522-0.729 0-0.832 1.731-0.205 1.766-2.114 2.491-3.325 0.562-0.408 0.83-1.109 1.248-1.663v-1.663c0.135-0.976 0.656-1.56 0.414-2.91 0.235-1.683 0.317-3.442 0-4.573-0.05-0.53-0.13-1-0.83-0.85zm-100.6 9.14c1.229-9.038-5.579-11.175-11.64-14.133-0.165-0.081 0.468-0.764 0.416-0.832-5.209 0.053-11.951-0.405-14.549 3.326h-2.078c-0.815 2.51-3.803 2.848-3.741 6.235v0.416c-0.901-0.07-0.188 1.475-0.416 2.079-0.125 6.93 6.684 12.702 14.549 11.639 4.977-0.772 9.125-1.131 12.886-3.741 0.653-0.04 1.441 0.056 1.247-0.832 1.273-0.574-1.068-1.919-0.416-2.494 0.507 0.878 1.604 1.167 2.494 1.663 1.599 0.896 2.942 2.046 4.988 2.494h0.416c0.023 0.254 0.062 0.492 0.416 0.416h0.832c0.501 0.606 1.817 0.4 1.247 2.078-1.553-0.444-1.185 1.032-2.494 0.832-0.604-1.614-2.957-1.478-4.573-2.079-0.272 1.252-1.328 1.721-1.663 2.91 2.437 0.816 4.129 4.371 4.572 5.819-1.279 0.291-0.799 0.291-2.078 0v-0.416c-1.066-0.042-0.668-1.549-1.247-2.079h-0.416c-0.427-1.375-1.152-2.451-2.91-2.494-0.324-0.092-0.483-0.348-0.416-0.831h-2.079c-0.093 0.322-0.011 0.82-0.416 0.831h-0.416c0.001-0.417-0.337-0.495-0.416-0.831-6.147 0.132-11.984 1.833-15.38 5.819h-0.416c-0.773 0.751-1.523 1.525-1.247 3.326-1.748-0.362-1.391 1.38-2.079 2.079v0.831c-0.35 1.036-0.544 2.227-0.416 3.741 0.057 0.774 0.273 1.389 0.832 1.663 1.255 5.257 4.67 8.354 11.639 7.898 0.531-0.022 0.576-0.533 1.247-0.416 6.744 0.507 11.816-4.256 14.133-9.561 0.152-1.491 1.116-1.523 0.416-2.91v-0.416h0.416c0.552-1.938-0.926-1.845-1.663-2.494 0.323-0.093 0.82-0.011 0.832-0.416 0.507-0.047 0.984-0.125 0.831-0.832 0.622-0.071 1.534 0.148 1.663-0.416-0.254-0.023-0.492-0.062-0.416-0.416 0.254-0.024 0.492-0.062 0.416-0.416 0.253-0.023 0.492-0.062 0.416-0.416 1.268 0.02 2.117-0.377 2.494-1.247 0.464-0.644 1.351-0.866 1.247-2.079v-0.416c0.253-0.023 0.492-0.062 0.416-0.416 1.271-0.946 0.49-3.944 1.247-5.404 0.522-0.17 0.85-0.536 0.832-1.247h0.416c0.659-1.419-0.062-2.913-0.831-3.741 0.124-0.675-0.562-1.121-0.832-0.416-2.353-0.277-4.314 0.635-4.157 1.663-0.255-0.576-1.6-0.062-1.663-0.831-0.07-0.562 2.114-0.831 0.832-1.247-0.804 1.043-1.702-1.319-2.91-1.247-0.137 0.02-0.276 0.02-0.414 0.02zm34.088-7.48c-1.94 1.522-7.709-0.531-8.729 0.832-2.648-2.479-5.762-4.492-7.482-7.898-2.185 1.141-3.877 2.773-4.572 5.404h-0.416c-1.378 0.007-0.422 2.349-1.247 2.91v0.416h-0.416v2.494c-0.437 1.137-0.437 1.773 0 2.91-0.166 4.632 3.141 9.306 7.482 10.808 0.175 0.934 2.206 0.011 2.494 0.832 5.585 1.021 9.776-1.853 12.471-4.988 2.189-3.505 7.275-8.691 5.404-15.38h-1.663c-0.275 1.471-2.123 1.366-2.494 1.663-0.28 0.01-0.56 0.01-0.83 0.01zm105.17-6.65c-0.475 3.262 2.672 2.623 2.494 0h-2.49zm-90.62 13.72c-3.174-4.6-3.006-7.541-5.82-12.471-2.225 1.593 0.233 5.861-1.247 9.561v0.832c-0.772 1.306-0.767 3.39-1.663 4.572-0.131 0.562-0.592 0.794-0.416 1.663 2.905 1.407 5.024-1.268 6.651-2.494 0.57-0.82 2.51-0.26 2.5-1.66zm-85.634-10.4c-1.085-1.537-5.5-0.743-4.988 0-1.357-0.529-0.881-0.599-2.079-0.831-5.087 1.179-11.011 1.389-12.055 7.482-0.502 1.437-1.125 2.754-0.831 4.988-0.069 1.455 0.11 2.661 0.831 3.326v0.416c0.827 2.869 3.744 8.08 6.651 4.988 3.722-2.392 10.502-1.958 15.38-2.078h0.416c0.62 1.042 1.866 1.459 2.91 2.078 0.786-0.093 0.917 0.469 1.663 0.416 0.848 0.725 0.815-0.31 1.663 0.416 0.022-1.269-1.497-0.997-1.247-2.494-0.556-1.259-2.468-1.41-2.91-1.663-0.333-0.65-1.608-3.925-2.91-4.988v-6.651c-0.007-1.279 2.239-2.44 0.832-3.741-0.609-0.915-1.102-1.947-2.91-1.663-0.14-0.03-0.278-0.03-0.416-0.03zm176.66 0.84c-1.117-0.286-0.804 0.859-1.248 1.247-0.231 0.865-1.188 1.344-0.414 2.079-1.147 2.038-2.971 3.404-4.155 5.404-0.257 0.022-0.492 0.062-0.416 0.416-0.694 0.691-1.39 1.384-2.078 2.079 0.503 0.088 0.256 0.461 0 0.831 0.035 1.351 0.215 2.557 0.832 3.326-0.031 0.724 0.093 1.293 0.415 1.663 0.199 0.491 0.441 0.942 0.831 1.247 1.235 3.335 3.532 5.612 6.649 7.067 0.797 1.419 3.262 1.171 4.571 2.079 1.312-0.204 1.468 0.749 2.91 0.416 2.787 0.21 4.772 0.565 6.651-0.832 3.703-1.146 6.072-3.626 6.647-7.898 0.563-2.35 0.253-4.06 0-7.067-0.756-0.887-0.375-2.264-0.831-2.494-0.217-0.615-0.613-1.048-0.828-1.663-0.375-0.735-1.007-1.213-1.248-2.078h-2.078c0.988-0.984-0.067-2.042-1.662-1.663 0.17-1.001-0.76-0.903-0.416-2.078-3.672-0.624-5.465-3.127-9.979-2.91-1.41 0.113-3.37-0.322-4.155 0.416 0.01 0.11 0.01 0.25 0.01 0.39zm-27.85 5.4c0.01-2.227-1.566-2.867-1.663-4.988-1.517 0.423-3.448 0.431-4.155 1.663-0.039 0.655-1.062 0.325-0.832 1.247-0.552 0.695-1.605 0.886-1.248 2.494-0.961 0.924 0.145 1.621 0 2.91-0.215 2.001-1.433 3-1.246 5.404 1.584 0.336 1.275-1.218 2.494-1.247 0.979-0.132 1.562-0.657 2.909-0.416h0.416c1.732-0.208 1.833 1.215 3.741 0.831 0.273 0.558 0.889 0.774 1.662 0.832 0.171 0.522 0.535 0.85 1.247 0.832 0.376 0.733 0.93 1.287 1.663 1.663 0.896 0.629 1.158 1.89 2.078 2.494-0.356 1.326 0.654 1.286 0.832 2.079v0.416c-0.301 1.27 0.424 1.515 0.414 2.494-0.092 0.786 0.47 0.917 0.416 1.663 0.633 0.873 2.584-0.438 2.494-1.663 0.584-0.108 0.475-0.912 0.832-1.247 0.178-0.793 1.188-0.752 0.829-2.079 0.987-1.536 0.651-3.564 0.415-5.819 0.021-0.572-0.193-0.913-0.415-1.247h-0.829c-3.324-1.173-7.535-2.295-9.979-5.404-0.28-1.32-1.55-1.71-2.05-2.88zm70.67 13.72c0.077-4.449-1.688-5.471-2.494-9.561-0.256-0.577-1.601-0.063-1.663-0.832-1.599-3.423-11.104-7.828-13.302-2.91-1.474-0.088-0.821 1.95-2.494 1.663-0.297 2.098 0.567 3.035 0.831 4.572 0.064 0.489-0.07 1.18 0.416 1.247v0.416c0.229 0.604-0.486 2.148 0.416 2.078v1.663c-0.179 1.509-0.061 3.174-0.416 5.404 0.092 0.324 0.348 0.483 0.831 0.416 0.093 0.323 0.013 0.82 0.416 0.832-0.427 1.396 1.293 0.647 2.078 0.832 0.202 0.491 0.442 0.942 0.831 1.247 0.07 0.484 0.656 0.451 1.246 0.416 0.095 0.323 0.013 0.82 0.416 0.832 0.168 1.634 1.912 1.69 2.078 3.325 4.026 1.909 8.392-2.942 9.562-6.651 0.615-0.077 0.381-1.004 0.415-1.663 0.616-0.078 0.382-1.005 0.416-1.663 0.1-0.57 0.56-0.8 0.39-1.67zm-119.72 9.97c2.773-2.022 4.639-7.275 3.325-9.977 0.146-0.469 2.05-1.194 0.832-1.663-1.061 1.329 0.385-1.7-0.416-1.247-2.268 0.494-2.432 0.421-4.573 1.247 0.835-0.848-0.184-0.815-0.416-1.663-2.696 0.754-5.31-1.886-5.404 0h-1.663c-0.412-2.637-3.559-2.537-4.157-4.988-1.37 0.154-2.077 0.972-2.91 1.663-0.593 0.1-0.701 0.685-1.247 0.831-1.834 1.419-4.353 4.149-4.573 5.82-2.399-0.182-1.885 2.549-2.91 3.741 0.343 1.175-0.586 1.077-0.416 2.079 0.093 0.786-0.468 0.917-0.416 1.663v4.157h0.416v0.832c0.577 0.255 0.063 1.6 0.832 1.663 0.61 2.161 2.122 3.421 4.573 3.741 0.07 0.484 0.657 0.451 1.247 0.416 1.142 1.053 2.902 0.846 4.572 0.416 2.423-0.903 5.472-1.179 7.067-2.91 1.308 0.199 1.625-0.592 2.494-0.831 1.362-1.132 2.805-2.184 3.325-4.157 0.34-0.09 0.5-0.34 0.43-0.83zm66.93-15.79c1.119-0.369-0.721-1.16-1.663-0.831 0.019 0.572-0.196 0.913-0.416 1.247-0.763 0.887 0.692 2.79 0 4.988v0.416c-0.75 3.348-0.633 4.996-2.494 7.067 0.726 0.031 1.294-0.093 1.663-0.416 1.346-0.179 3.596 0.547 3.741-0.831 1.565 0.07 3.2-1.165 2.078-2.494v-0.416c-0.003-1.105-1.156-1.06-1.663-1.663 1.41-1-2.05-3.98-1.25-7.08zm61.93 4.99c0.196-1.327 2.131-0.917 2.078-2.494-3.435-0.861-4.957-3.634-9.562-3.325 1.229 4.943 0.757 10.321-0.415 14.965 1.387-0.418 1.361 0.577 1.247 1.663 4.044 0.251 6.026 2.564 8.313 4.572 1.17 3.402 3.396 5.749 4.985 8.729 2.419 11.043-3.521 17.237-9.146 21.616 1.469 2.413 5.48 2.277 9.146 2.494-0.371 2.033 2.142 1.186 2.91 2.079 4.346 6.211 8.521 13.558 5.817 24.524-2.613 1.6-2.695 4.414-5.402 5.82-3.949 2.053-8.788-0.16-13.305 0 0.195 4.102 3.492 5.1 5.404 7.48 0.706 3.865 4.594 4.553 4.572 9.146 1.4 0.123 2.84 0.209 3.74 0.832-0.348 0.48-0.549 1.113-0.415 2.078h-3.325c-1.607-6.291-7.277-8.521-10.393-13.304-2.418 0.216-3.297 1.972-3.742 4.155-3.484 2.604-8.739 4.74-14.965 3.326-0.293 4.59 0.351 8.24 0.832 12.055 4.562 2.523 8.16 2.766 13.719 2.494 0.02-1.959-0.73-3.146-0.832-4.987 7.688 2.362 13.316-0.293 22.031 0-0.211-8.253 1.664-14.954 0-22.446 3.764-0.479 2.682 1.412 6.648 0.832-0.51-4.201-2.548-6.875-2.493-11.641 1.271-0.303 1.224 0.719 2.493 0.416 1.021-6.729-1.961-11.586-2.908-14.965 1.129-0.951 3.688-0.469 4.986-1.248-0.391-4.183-3.758-5.385-4.986-8.729 0.668-1.689 2.203-2.508 4.986-2.079-1.288-4.254-4.146-6.941-7.064-9.561-1.85-0.507-3.75-0.959-3.74-3.325 2.187-1.233 6.111 0.247 6.649-3.326-0.438-2.053-2.411-2.577-2.909-4.572 0.996-1.223 2.957-1.478 3.324-3.326-2.514-6.355-9.236-8.498-14.134-12.471-0.153-1.817 2.25-1.076 2.494-2.494-0.88-2.99-5.07-2.68-6.65-4.98zm-103.09 24.94c2.928-0.633 3.243-2.772 4.571-4.157 0.955-6.4 0.405-9.104-1.247-16.212-3.793-4.462-10.615-12.595-18.29-7.898-2.555-0.199-3.351 1.36-4.571 2.494 0.938 0.858-0.455 2.126 0.416 3.325v4.158c-0.095 1.793-0.369 2.923-1.248 5.404-0.086 1.194 0.105 2.111 0.832 2.494 1.715 5.352 5.312 8.824 9.979 11.224 0.942 0.717 2.438 0.889 4.153 0.831 1.197-0.049 2.725 0.227 3.326-0.416 0.623 1.374 1.019-0.864 2.078-0.416v-0.81zm-50.3-27.44h-0.831c-0.933 1.285-1.681 2.753-2.91 3.741-1.611 0.893-3.637 2.609-3.741 3.741-1.031-0.061-2.018-0.077-2.079 0.832h-0.416c-6.264 2.449-9.903-2.925-12.055 3.741-0.023 0.531-0.533 0.576-0.416 1.247h-0.416v2.494c0.171 2.461-0.527 5.792 0.832 7.066 1.939 10.693 18.754 13.047 24.525 4.573 1.245-0.273-0.397-0.889 0-1.663 1.701-0.576 1.343-1.048 1.663-2.494-1.175-0.344-1.077 0.585-2.079 0.416 1.147-1.11-0.491-0.903-0.416-2.079-1.56 0.916-0.906-0.847-2.079 0 0.021-4.205-2.583-4.847-1.663-10.392v-1.663c-0.001-0.417 0.336-0.495 0.416-0.832 0.559-0.965 0.688-2.36 1.247-3.325 0.023-0.532 0.533-0.576 0.416-1.247h0.416c-0.369-1.761 1.922-2.113 0.831-3.326v-1.663h-1.247v0.83zm79.4 6.65c-0.168-2.74-2.291-3.528-2.908-5.82-4.441-1.777-8.471-1.78-11.641-0.832-0.064 0.489 0.069 1.18-0.416 1.247-3.117 0.194-4.778 2.893-6.649 5.404-0.116 0.873-1.11-0.603-1.663 0.416 0.598 1.343 0.732 3.147 1.663 4.157-0.056 1.025-0.063 2.003 0.415 2.494 0.162 1.085 0.214 2.281 0.832 2.91v4.157c-0.461 1.796-0.762 3.971 1.662 4.572 0.611-1.665 1.013-1.378 1.662-2.494 1.588-1.46 3.756-2.342 5.818-3.325 0.488-1.286 1.045 0.065 1.662-0.832 0.531-0.022 0.576-0.533 1.247-0.416 0.531 0.023 0.576 0.533 1.247 0.416 0.529-0.022 0.575-0.533 1.247-0.416 0.511 1.012 2.503 0.048 2.909-0.416 0.849-0.122 0.812-1.125 1.66-1.247 0.586-0.109 0.478-0.912 0.832-1.247 0.022-0.532 0.533-0.576 0.416-1.247 1.271-0.807 1.117-3.039 1.246-4.988-0.89-0.941 0.541-1.828-0.83-2.494h-0.42zm-105.58 9.98c2.059-1.839 2.273-6.488 4.572-9.146-0.369-0.122-1.82-1.125-0.831-1.247-0.001 0.231 0.336 0.472 0.416 0-1.94 0.042-1.773-2.826-4.572-3.741 0.106 1.095 0.856 1.364-0.832 1.247 0.517 1.317 0.172 3.594-1.247 4.157-0.31 1.279 1.141 0.799 0.832 2.078-0.593-0.1-0.701-0.685-1.247-0.831-1.33 1.029-0.082 2.472-0.416 2.91-0.554 0.062-1.254-1.69-1.663-0.416-1.208 1.008-2.522 1.912-3.741 2.91v0.416c-0.476 1.631-0.089 1.545-0.416 3.326 1.279-0.31 0.799 1.141 2.078 0.831 0.088-0.466 0.461-0.646 0.832-0.831 0.018-0.572-0.196-0.913-0.416-1.247h0.416c0.088 0.466 0.461 0.647 0.832 0.831 1.341-0.46 2.127-1.475 4.157-1.247h1.246zm-54.039-11.64h-1.247c-3.124-0.29-2.7 1.102-6.235 0.832-0.818 2.092-3.217 2.603-4.157 4.573-1.289 0.097-1.297 1.474-1.663 2.494-0.93 1.148-0.862 3.294-0.832 5.404v0.831c-0.329 1.438 0.462 1.755 0.832 2.494 1.436 6.711 8.087 10.051 15.796 9.145 4.117-1.148 8.601-1.93 10.392-5.404-0.774-0.397-1.39 1.245-1.663 0 1.59 0.065 1.351-1.697 2.079-2.494-1.468-0.143-1.075-1.091-0.832-2.078v-1.663c0.35-1.036 0.544-2.227 0.416-3.741 0.806-0.58 0.62-2.152 1.247-2.91 0.663-0.307-0.095-2.035 1.247-1.663v-0.832c0.72-4.647-6.507-3.404-6.651-5.819-3.678 0.43-6.431-0.65-8.729 0.83zm204.93 4.16c-1.329-0.209-2.808 3.004-4.157 4.157h-1.246c0.104 1.351-1.521 0.974-2.078 1.663-1.029-0.061-2.019-0.077-2.08 0.832h-1.659c-0.363 2.025 0.565 2.757 0.829 4.157h0.416c0.279 1.105 0.654 2.117 1.246 2.91-0.022 2.242 0.646 3.787 0.832 5.82v2.495c-0.322 0.092-0.481 0.348-0.416 0.831v0.832c-0.77 0.062-0.256 1.408-0.832 1.663 0.418-0.001 0.496 0.337 0.832 0.416 0.17 0.522 0.535 0.85 1.246 0.831 0.354 0.618 1.34 0.602 2.08 0.832 1.812-0.268 4.697 0.542 5.818-0.416 1.464-0.476 2.966-0.914 3.741-2.079 3.284-2.022 4.547-6.706 4.571-10.808 1.445-1.341-1.174-2.127-0.416-4.157v-0.416c-0.155-4.464-5.525-5.298-5.818-8.313-1.551 0.707-0.658-0.246-2.078-0.416-0.03-0.49-0.11-0.97-0.82-0.81zm-22.86 4.15c-4.728-2.818-11.272-0.65-14.966 0.832h-0.831c-1.193-1.38-1.941-0.912-4.156-0.832 0.336 1.583-1.219 1.276-1.248 2.494v0.416c-0.32 0.092-0.48 0.348-0.414 0.832-1.516 0.979-1.699 3.288-2.908 4.572h-0.831c-9.376-2.94-14.771 4.76-17.459 11.224v0.416c0.028 0.724-0.095 1.293-0.416 1.663 0.049 3.276-0.32 6.971 1.247 8.729 0.005 1.52 0.818 2.227 1.66 2.91 0.48 1.598 1.312 2.846 2.91 3.326 1.086 1.416 4.571 2.622 6.234 2.078 1.026-0.79 2.209 1.176 3.326-0.416h0.831c1.046-0.617 2.397-0.927 2.91-2.079 1.04 0.07 1.301-0.639 1.661-1.247 3.231-3.417 6.525-6.776 7.066-12.886-0.023-0.253-0.062-0.492-0.416-0.416v-0.416c0.202-1.312-0.75-1.468-0.414-2.91 0.477-1.308-0.652-1.01-0.832-1.663 0.979-0.113 0.254-1.841-0.416-1.663-0.14-3.05-3.027-3.346-2.908-6.651v-0.416c-0.023-0.531-0.533-0.576-0.416-1.247h0.416c0.131-0.976 0.656-1.56 0.414-2.91 0.021-0.532 0.531-0.576 0.416-1.247 0.653-0.038 0.326-1.06 1.248-0.832-0.022 0.715 0.316 1.065 0.83 1.247v1.247c0.514 1.345-1.347 0.318-0.83 1.663-0.567 0.561-0.793 2.902 0.416 2.91 0.198 0.491 0.439 0.942 0.83 1.247 0.769 2.142 1.916 3.903 2.492 6.235 0.239 0.87 1.03 1.187 0.831 2.494 0.08 1.084 0.396 3.193 0 4.573 2.158 0.891 3.783 2.314 6.233 2.91 1.283 0.517 2.955 0.647 4.572 0.832 1.129-0.257 3.299 0.528 3.74-0.416 4.102-0.473 7.479-1.666 8.729-4.988 0.509-0.88 1.563-1.207 1.664-2.494 0.771-1.57 0.922-3.603 0.416-5.404-1.188-5.466-3.782-9.519-7.897-12.055-1.45-0.3-1.91-1.64-3.72-1.63zm42.81 0c-1.326-0.356-1.285 0.654-2.078 0.832-0.584 0.108-0.475 0.912-0.831 1.247-0.254 0.023-0.491 0.062-0.416 0.416-0.653 0.04-1.44-0.056-1.247 0.832h-0.416c-1.466 0.624-4.58 1.778-3.74 3.325h0.416c0.164 0.715-0.617 1.065 0 1.247v2.494c0.375 1.216 0.229 3.238 0 4.573-0.229-0.001-0.473 0.336 0 0.416-0.82 0.966-0.82 1.113 0 2.078-1.636-0.526-1.234 0.981-1.248 2.079 1.238 0.979 4.689-0.255 5.404 1.247 0.069 0.484 0.657 0.452 1.247 0.416 0.007 0.687 1.152 0.233 1.247 0.832 0.088 0.466 0.461 0.647 0.831 0.832 0.092 0.324 0.349 0.483 0.831 0.416 0.002 0.417-0.336 0.495-0.415 0.832h1.247c0.525 0.744 1.415 3.264 2.078 2.494h0.416c0.076 1.565 0.746 1.893 0.83 2.494-0.027 1.818 2.613 0.48 2.91 0 1.283-0.934 2.393-2.042 3.326-3.326-0.066-1.175 1.248-0.968 1.244-2.079 0.022-0.531 0.532-0.576 0.416-1.247h0.415c0.021-1.368 0.702-2.069 0.416-3.741v-1.247c0.546-0.006 0.529-1.153 0-1.247 0.351-2.011-0.386-2.939-0.831-4.157-0.094-0.322-0.012-0.82-0.416-0.831v-0.416c-0.056-1.607-1.688-1.64-2.076-2.91v-0.416c-0.09-0.466-0.461-0.647-0.832-0.832-0.475-1.19-1.306-2.021-2.494-2.494-1.59-1.86-3.42-3.49-6.25-4.14zm-116.8 5.82c1.28-0.291 0.799-0.291 2.08 0 0.272-1.52-0.897-1.594-0.833-2.91-2 0.11-2.36 1.72-1.25 2.91zm-53.628 0c-2.208-0.951-3.478 2.611-7.066 1.663-2.399 1.064-3.008 3.92-6.235 4.157-0.96 2.898-4.18 4.882-3.326 8.313-1.613 1.511-0.206 5.309 0.416 7.067 1.815 5.105 8.172 8.699 14.549 6.651 1.064-0.044 1.981-0.235 2.494-0.831 0.323-0.093 0.82-0.012 0.831-0.416 0.671-0.576 2.143-0.351 2.494-1.247 3.038-2.504 6.997-4.088 8.729-7.898 1.097 0.126 1.072-0.868 1.247-1.663 0.013-1.624-2.091-0.074-2.078-0.832v-0.416c-0.979 0.009-1.224-0.716-2.494-0.416-2.043-3.393-5.969-3.465-7.482-6.651 0.15 0.316 0.67-4.288-0.832-4.988-0.015-1.22 0.032-2.51-1.254-2.48zm61.518 12.89c-0.764-5.472-3.764-8.707-7.482-11.223-2.444 0.709-2.764-0.469-4.988-0.832-1.141 0.417-2.431 2.623-3.326 0.832-1.969 2.049-5.641 2.396-7.067 4.988h-0.416c-1.25 1.521-1.519 4.023-2.078 6.235v0.416c0.009 0.979-0.716 1.224-0.416 2.494-0.568 1.231 0.244 1.81 0 3.741v1.247c0.071 0.622-0.148 1.534 0.416 1.663 0.296 2.89 1.286 5.087 3.325 6.235 0.088 0.466 0.461 0.647 0.832 0.832 1.141 0.66 1.919 1.683 3.325 2.078 4.725 1.938 10.761 0.261 12.472-3.325 1.742 0.218 1.646-1.401 2.078-2.494 0.254-0.024 0.491-0.062 0.416-0.416 0.416-0.554 0.688-1.254 1.246-1.663v-0.832c0.021-0.531 0.533-0.576 0.416-1.247-0.201-1.309 1.275-0.941 0.831-2.494-0.356-1.326 0.654-1.286 0.831-2.078v-1.663c0.344-1.175-0.586-1.077-0.415-2.078 0.01-0.14 0.01-0.28 0.01-0.42zm-27.43 1.25c0.541-2.507 0.803-5.294 1.663-7.482h-2.91c-0.476 1.307 0.653 1.01 0.832 1.663-0.622 0.071-1.534-0.148-1.663 0.416 0.37 0.123 1.82 1.125 0.832 1.247-0.1-0.731-0.715-0.947-1.663-0.831-0.743 2.167-3.004 2.815-4.573 4.157h-0.832c-3.296 1.125-6.243 3.172-9.145 2.494v0.831c-0.324 0.092-0.483 0.348-0.416 0.832-1.154 1.425-1.217 4.531 0 5.82-1.708-0.185-0.379 2.172 0 2.494v1.247c0.777 0.332 1.522 0.694 2.494 0.831 0.522 0.17 0.85 0.536 0.832 1.247v0.832h-0.416c-1.553-0.444-1.185 1.032-2.494 0.832-0.031-0.724 0.093-1.293 0.416-1.663-8.782-2.42-12.185 3.233-18.706 4.988-0.222 2.648-1.668 2.436-2.494 4.988-0.507 0.047-0.984 0.125-0.832 0.832-0.998 0.883-0.73 1.547-0.416 2.494-1.511 0.014-1.826 1.223-1.663 2.91-0.042 1.703-0.082 3.406 0.416 4.57 0.253 0.021 0.492 0.062 0.416 0.416 1.572 5.355 5.556 8.301 12.886 7.896 0.731-0.238 2.442 0.502 2.494-0.416 1.492 0.246 2.011-0.48 2.91-0.83 1.571-0.092 2.019-1.311 3.325-1.664 1.463-0.895 3.179-1.531 3.741-3.322 1.251-2.229 0.325-2.85 0.416-6.234 0.105-1.42 1.051-1.998 0.831-3.742 0.178-0.791 0.896-1.045 0.832-2.078 0.688-0.42 0.452-1.768 0.832-2.494 0.253-0.023 0.492-0.062 0.416-0.416v-1.247c1.167-0.005-0.99-1.134 0.832-0.831 0.292-1.956-2.072-1.254-2.91-2.079 1.292 0.197 1.56-1.119 0.416-1.247 0.529-1.965 2.477-2.511 3.741-3.741 3.083-2.907 6.991 0.754 9.977 0 0.046-0.785 1.375-0.288 1.247-1.247-2.138-3.313-2.33-6.431-1.663-10.808h-0.416v-1.663h0.42zm43.23-2.5h-1.662c0.135 1.382-2.043 0.451-1.248 2.494 4.646 0.427 5.379 2.313 7.898 4.988 0.286-1.888 0.363-4.399 1.247-7.482-1.31-0.354-1.863-1.462-3.325-1.663-0.28 1.24-2.78 0.27-2.91 1.66zm-13.72 0c-0.424 1.81 0.86 1.912 1.247 2.91-0.531-0.023-0.576-0.533-1.247-0.416-0.285 1.876 0.697 0.954 1.663 0.832 0.064 0.489-0.072 1.18 0.415 1.247v0.416c0.03 0.724-0.093 1.293-0.415 1.663-0.816-0.125-0.824 0.561-1.247 0.831h-0.416c-0.047 0.507-0.124 0.984-0.831 0.832 0.255 2.946-0.068 2.229-0.416 4.573h0.416v0.416h-0.832c-0.96 1.107-1.091 2.778 0.416 3.326-1.506-0.12-1.607 1.163-2.91 1.247-0.303 1.134 0.826 0.836 0.832 1.663-0.607-0.595-1.609-0.611-1.246 0.832-0.463 0.355 0.315 2.984 0.83 3.741 1.035 2.014 1.28 4.816 3.741 5.404 0.022 0.254 0.062 0.492 0.416 0.416 2.619 3.889 11.963 3.967 15.38 0.83 0.653-0.039 1.441 0.057 1.247-0.83 1.47-1.025 2.729-2.258 2.91-4.574 0.483-0.068 0.45-0.656 0.415-1.246 0.938-0.309 0.163-2.332 0.416-3.325 0.47-1.21-0.088-3.007-0.416-4.573 0.27-2.486-1.096-3.338-1.662-4.988-1.27-1.007-0.553-1.838-1.663-2.494-1.894-3.829-10.041-4.645-14.133-6.651v-0.416c-1.062-0.878-1.159-2.721-2.91-2.91 0.01 0.41 0.01 0.83 0.01 1.24zm-94.359 3.33v-0.416c-1.219-1.17-1.788 0.655-2.494 1.247 2.913-4.501-6.399-3.893-8.313-2.494-3.485-2.185-7.708 1.952-9.561 4.157h-0.416c-0.695 1.522-2.104 2.33-2.079 4.573-0.479 0.491-0.47 1.469-0.416 2.494-0.733 0.853-0.279 2.419 0 2.91 0.065 0.489-0.071 1.18 0.416 1.247v0.832c1.252 8.729 13.688 13.056 20.784 7.481 1.655-0.16 1.498-4.302 1.247-4.987 0.123-0.848 1.125-0.815 1.247-1.663 0.349-0.482 0.548-1.114 0.416-2.078 0.1-0.593 0.685-0.701 0.831-1.247 0.643-0.604 0.873-1.622 0.832-2.91h0.832v-0.831c2.413-0.832 0.604-3.958 0.416-5.82-2.492-0.395-3.34 1.142-4.157-0.416 0.522 0.091 0.85 0.647 0.831-0.416 0.005-0.549 0.729-0.38 0.832-0.831-0.324-0.092-0.483-0.348-0.416-0.832-0.278 0.01-0.555 0.01-0.832 0.01zm11.639-0.42c-1.08-1.093 0.672-0.327 0.416-1.663-2.856-1.128-1.569 1.012-3.741-0.416-0.923 1.681-3.434 0.938-4.573 0.832 0.018 0.572-0.196 0.913-0.416 1.247 1.034-0.064 1.287 0.653 2.078 0.831 0.349 0.483 0.548 1.115 0.416 2.079h0.416c0.413 1.893 3.25 0.942 4.573 0.416 0.253-0.023 0.492-0.062 0.416-0.416 0.331-0.046 1.26-1.375 0.416-1.247 0.481-0.61 0.481-1.04-0.001-1.66zm177.91 2.08c-1.631 1.003-2.414 2.851-4.572 3.326h-0.416c-1.264 0.941-5.086 1.114-6.235 0.832 0.347 1.334 0.354 0.862-0.415 1.663-0.585 0.108-0.475 0.912-0.832 1.247h-0.416v3.326c-0.061 1.862 0.045 3.558 0.832 4.572 1.772 4.877 4.396 8.907 9.979 9.978 0.171 0.521 0.533 0.851 1.244 0.83h1.248c2.822 1.014 6.971-0.229 8.729-1.662 2.979-1.592 5.38-3.767 5.82-7.897 0.929-0.179 0.168-2.048 0.413-2.91-0.004-1.104 0.158-2.374-0.413-2.91v-0.416c-0.944-4.075-3.663-8.488-7.482-8.313 0.078-2.435-2.432-2.279-4.155-2.91h-2.91c0.03 0.57-0.19 0.91-0.41 1.24zm-15.38 3.74c-0.854-2.003-2.104-1.241-4.153-1.663-0.316 1.414-2.693 2.535-0.832 3.741 1.067 0.732 1.795 1.808 2.907 2.494-0.021 1.269 1.498 0.997 1.248 2.494 0.947-0.571 1.562 1.072 1.662 0 0.943-0.442 0.158-2.613 0.416-3.741 0.549 0.201 0.024-1.906-0.416-2.079 0.02-0.7-0.32-1.06-0.84-1.24zm-154.63 9.56v-0.832c-0.817-0.124-0.824 0.562-1.247 0.832-2.389-4.323-6.242-4.774-6.235-9.977-3.87-0.764-6.276 2.259-7.067 5.82h-1.247c-0.134 3.053-2.162 4.211-2.494 7.066 0.267 1.673-0.541 4.419 0.416 5.404 0.349 3.531 2.61 5.148 4.988 6.65 0.17 0.521 0.536 0.85 1.247 0.832-0.07 0.899 1.475 0.188 2.079 0.414 0.562 0.133 0.794 0.594 1.663 0.416h0.416c1.258-0.508 2.228 0.348 3.741-0.416 0.489-0.062 1.18 0.072 1.247-0.414 1.325 0.354 1.578-0.361 2.078-0.832 0.005 0.42 0.729 0.521 0.832 0 1.758-0.598 2.766-1.945 2.91-4.156 0.798-0.588 0.752-2.02 1.247-2.91v-0.416c1.467-0.889 1.876-2.834 2.91-4.156v-0.831h2.079c0.143-1.528-1.515-1.257-2.494-1.663 0.075 1.594-0.34 0.15-1.247 0.416-0.088-0.466-0.461-0.647-0.832-0.832-0.164 0.715 0.617 1.065 0 1.247-0.534-0.712-0.859-1.635-2.078-1.663-0.093 0.323-0.012 0.82-0.416 0.832-0.328-1.559-1.454-0.026-2.078-0.832h-0.418zm133.85-4.98h-0.83c-1.021 0.554 0.748 1.254-0.416 1.663-0.559-1.892-1.485 1.027-2.494-0.416 1.378-0.146 1.804-1.245 2.494-2.079-2.211-0.527-3.391-3.474-6.235-2.078 0.485 1.592 1.407 2.75 2.494 3.741 0.047 0.507 0.124 0.984 0.831 0.831-1.336 2.962-4.344 6.459-2.909 10.808v2.91h0.416c0.823 1.062-0.433 1.912 0.415 2.494 0.15 3.729 1.994 5.766 4.572 7.065v0.832c0.998 0.524 1.801 1.248 2.91 1.661 1.883 0.752 3.293 1.974 6.232 1.662 1.764-0.313 4.926 0.769 5.404-0.83 0.32-0.094 0.816-0.012 0.831-0.416 0.417 0 0.491-0.338 0.831-0.416 1.552 0.166 2.438-0.332 2.492-1.661 0.718 0.021 1.065-0.32 1.246-0.832 1.58-1.472 3.031-3.065 3.326-5.817 0.979-3.396 0.609-4.89 0.416-7.899-0.094-0.323-0.012-0.82-0.416-0.832 0.271-2.346-1.125-3.824-1.246-4.572-0.022-0.254-0.062-0.492-0.416-0.416-1.68-2.896-4.369-6.989-7.064-7.482-1.598 1.218-6.491 2.578-12.059 2.079-0.26 0.03-0.53 0.03-0.81 0.03zm-8.31 4.98c0.541-1.913 0.577-1.859 1.247-3.326-1.401 0.057-0.548-3.26-2.91-3.325-0.454 0.931-0.688 2.083-1.247 2.91v0.416c-0.972 2.234-1.92 2.723-3.324 4.988h-0.416c-0.562 0.407-0.539 1.401-1.248 1.663h-1.246c0.021 1.545-2.116 0.93-2.907 1.663 1.229 0.292 1.812 1.238 3.739 0.831v0.832c-3.442-0.776-11.778-1.919-13.303 0.416v1.248c-0.938 0.231 0.504 0.647-0.416 1.246 0.301 1.272-0.718 1.224-0.416 2.496-0.264 4.976 3.616 5.805 5.819 8.312-0.116 0.947 0.101 1.562 0.832 1.664-0.002 0.416 0.336 0.492 0.415 0.83 0.202 0.49 0.443 0.941 0.832 1.246 0.023 0.254 0.062 0.492 0.415 0.416 0.42 0.828 0.719 1.775 1.663 2.078 1.59 0.352 3.337 0.543 5.404 0.416 1.723 0.477 1.619-0.875 2.908-0.832 0.715 0.021 1.064-0.318 1.248-0.83v-0.416h1.66v-0.832c5.051-2.352 1.169-11.639-0.416-15.379 1.836 0.061-0.039-1.02 0.416-2.08 0.229 0.002 0.475-0.336 0-0.416 0.155-0.69 0.54-4.651 0.831-5.404 0.34-0.1 0.5-0.35 0.44-0.84zm-104.34-3.74c0.689 0.696 2.44 0.331 3.741 0.416-0.429-1.609 0.217-1.712-0.416-2.91-1.38 0.55-2.82 1.05-3.32 2.49zm19.12 3.33c-1.882-2.017-5.366 0.806-5.404 3.325 2.5 0.94 3.99-1.89 5.4-3.33zm18.71 7.06c-3.12-0.356-5.207-1.96-8.314-2.91-1.928-8.725-15.962 0.475-14.133 5.404-1.805-0.42-1.853 0.918-2.494 1.662v0.832c-0.484 0.068-0.451 0.656-0.416 1.246-0.741 1.338-0.386 3.771-0.832 5.404 0.324 0.09 0.483 0.348 0.416 0.83 0.422 1.52 0.576 3.303 1.663 4.156v0.414c0.699 1.658 1.987 2.727 3.325 3.742 2.942 2.34 9.195 3.938 13.302 1.662 2.825-0.777 4.279-2.928 6.651-4.156 0.343-1.176-0.586-1.078-0.416-2.078 0.531 0.021 0.576 0.531 1.247 0.416 2.764-4.535 3.476-7.236 3.741-13.303-1.032 0.062-1.725-0.215-2.079-0.832 0.715 0.021 1.065-0.318 1.247-0.832 0.715 0.021 1.065-0.318 1.247-0.83h2.079c0.369 1.764-1.091 2.941 0 4.156-1.747-0.059-0.832 3.199-1.247 5.818 1.711-0.09 1.16-2.441 3.742-1.662-0.437-1.178 0.688-2.854 0-2.908-0.086-1.303 0.279-3.055-0.416-3.742-0.586-1.547 0.664-3.079-0.832-4.157-0.417 0.001-0.495-0.337-0.832-0.416-0.092 0.324-0.348 0.483-0.832 0.416-0.023-0.253-0.062-0.492-0.416-0.416-0.519 1.144-2.434 0.892-2.91 2.079h-0.416c-0.69 0.01-1.38 0.01-2.07 0.01zm42.81 1.67c0.117-1.406 0.66-2.386 0.416-4.156-1.562 0.035-1.526-1.522-2.91-1.663-1.979 1.484-1.246 5.683-2.909 7.481v0.416c-0.47 0.502-1.188 0.754-0.832 2.078h2.077c1.58 0.16 1.679 0.535 3.742 0.832 0.229-1.658 0.229-1.252 0-2.91 0.9 0.07 0.18-1.48 0.41-2.08zm91.87-4.58c-1.789-0.567-3.224-1.489-5.82-1.247-0.189 2.601-2.687 4.962-1.248 7.066-1.297-0.197-2.012 0.52-1.244 1.248h-1.662c-0.062 0.488 0.068 1.18-0.416 1.246-1.497 0.582-1.852 2.307-3.741 2.494 0.437 1.178 0.437 1.729 0 2.908 0.351 0.48 0.552 1.115 0.416 2.08 0.472 1.605 0.786 3.369 2.078 4.154 0.687 1.533 1.593 2.844 2.91 3.74 0.253 0.021 0.489 0.062 0.415 0.416 0.068 0.482 0.654 0.451 1.244 0.416 0.482 1.18 1.688 1.637 3.326 1.662 0.564 1.234 2.873 0.729 4.572 0.832 0.094-0.322 0.012-0.82 0.416-0.832 1.641-0.531 1.006 1.211 2.078 1.248 0.553-1.391 2.432-1.449 2.91-2.91 0.253-0.021 0.492-0.062 0.415-0.416h0.416c0.882-1.07 2.88-3.199 2.493-4.156-0.002-0.418 0.338-0.492 0.416-0.832v-1.244h0.416v-2.078c0.652-1.693-0.301-4.068-0.832-5.82v-0.414c-1.75 0.641-0.065-2.152-1.246-2.08-1.197-0.051-0.215-2.279-1.663-2.078 0.116-0.947-0.101-1.562-0.831-1.662h-0.416v-0.416c-0.557-1.105-2.091-1.234-2.494-2.494-1.2-0.07-1.75-0.77-2.93-0.84zm-124.29 3.75c0.146 2.023-0.799 5.221 1.246 7.066 1.225-0.439 2.754-0.572 3.741-1.246-0.252-0.719-1.972 0.029-2.078-0.832 2.072-0.178-0.165-0.893-0.416-1.248 1.66-0.87-1.34-3.04-2.49-3.74zm-75.241 14.13v2.494c4.283-0.08 9.449-0.795 8.313-4.988-10.59 2.832-18.009-2.088-22.863-8.312-1.712-0.188-1.56 1.487-2.91 1.662-5.333-0.326-9.473 0.703-12.886-0.832-2.289-1.029-3.361-4.312-6.235-2.078v3.326c5.565 0.114 10.311 1.051 13.718 3.323-0.4 1.815-2.183 2.252-2.079 4.574 7.746 4.38 17.464-0.45 24.942 0.84zm166.27-9.98h0.415c0.093-1.615-0.171-2.877-2.078-2.494v2.078c0.319 1.567-0.507 1.987-0.415 3.326 1.41-0.27 1.92-1.42 2.08-2.92zm13.31 4.99c-1.582 0.17 2.896-1.062 0.83-0.83-1.967 0.22-4.517 1.078-7.063 0-1.877-0.795-2.405-3.567-4.988-2.909-0.976 1.521-2.235 2.75-3.323 4.155-0.023 0.531-0.533 0.576-0.416 1.248-1.311 2.088-1.596 4.726-1.662 7.063-0.293 2.787 0.428 4.562 0.416 7.065h0.416v0.416c-0.015 1.396 0.569 2.197 1.246 2.908v1.664c1.414-0.31 0.686 1.53 1.66 1.662 0.402 1.952 2.527 2.184 3.325 3.741 5.94 4.81 15.399 2.793 17.875-4.157 0.771-0.062 0.255-1.406 0.831-1.662 0.408-0.978 0.729-2.043 0.832-3.326h-0.416c0.777-0.791 0.046-1.043 0-2.075-0.096-0.324-0.014-0.82-0.416-0.832v-0.832c-0.938-0.781-1.604-3.789-3.741-4.572 0.229 0.002 0.476-0.336 0-0.416-0.021-0.252-0.062-0.489-0.415-0.414 0.911-1.58-0.834-1.578-0.832-3.325-0.406-0.978-0.729-2.041-0.828-3.324-0.268-0.907 1.178-1.321-0.416-1.248-0.967-0.606 0.812-1.315-0.832-1.246-0.164 0.716 0.615 1.063 0 1.246-0.7 0.02-1.39 0.02-2.08 0.02zm-72.33 0.83c-0.168-1.356-3.104 0.054-2.494-2.078-1.629 0.729-2.203-0.438-3.325-0.416-4.79 0.099-6.12 4.818-11.224 2.494 0.104 1.834 1.711 2.168 2.91 2.91-0.136 1.379 0.924 1.567 1.244 2.491 0.229 0.74 0.217 1.729 0.831 2.078-0.062 1.035 0.653 1.287 0.832 2.08 0.535 0.979-0.055 0.771 0.415 2.078 0.096 0.319 0.014 0.817 0.416 0.83-0.021 0.53-0.531 0.575-0.416 1.248v4.569c-0.646 0.108-0.288 0.912 0 1.248-0.279 1.278-3.189 4.063-0.415 4.571 2.122 2.726 6.706 4.269 11.226 3.326 3.703-0.039 4.562-2.922 6.648-4.572-0.514-1.346 1.348-0.317 0.831-1.663v-0.416c1.345-0.853 1.576-2.173 1.247-3.74 0.322-0.092 0.48-0.349 0.416-0.832 0.271-2.166-0.492-3.756 0-4.985-0.252-0.72-1.975 0.03-2.078-0.832 0.489-0.063 1.182 0.069 1.247-0.416-0.521-0.17-0.853-0.535-0.832-1.246v-0.416c-1.476-3.375-3.728-5.976-6.233-8.312-0.42 0.01-0.84 0.01-1.25 0.01zm-27.02-0.83c-1.989 0.392-3.302-1.108-4.155 0.416 0.856-0.364 1.573 1.371 0.83 1.248-1.265-1.539-4.156-1.067-4.988 0 1.014-0.399 1.376 1.867 0.832 1.662-0.826-0.007-0.526-1.136-1.663-0.832-1.923 2.513-3.866 5.002-4.157 9.146v2.08c-0.544 0.006-0.529 1.151 0 1.246-0.018 0.571 0.196 0.911 0.416 1.247-0.508 0.558 0.037 2.406 0.416 3.324 0.065 0.487-0.071 1.181 0.416 1.248 1.479 4.062 4.286 6.799 8.729 7.896 2.418 0.66 7.838 0.979 9.146-0.832h0.415c0.625-0.621 1.75-0.742 2.078-1.662 1.855 0.195 0.908-2.416 2.078-2.91h0.416c1.623-1.09 1.691-3.475 2.494-6.233 0.196-1.487 0.676-2.399 0-3.739v-3.742h-0.416v-0.83c-0.562-1.239-0.912-2.69-2.078-3.325v-0.416c-1.117 0.286-0.806-0.856-1.246-1.246v-0.416c-0.324-0.093-0.483-0.349-0.416-0.832-0.965 0.133-1.599-0.065-2.078-0.416-1.014-0.789-2.057-1.547-4.157-1.246 0.419-1.25-0.927-0.735-1.663-0.832-0.41-0.01-0.83-0.01-1.24-0.01zm81.06 7.9c0.635-0.598 0.404-2.168-0.832-2.078-1.02 0.83-0.82 1.93 0.83 2.08zm-17.88 2.49c-0.498-0.965-3.799 0.078-1.662-1.248-2.559 0.342-3.094-1.34-4.57-2.078-2.992 2.26-2.531 9.195-1.663 12.055v1.248c0.044 1.064 0.233 1.98 0.832 2.494v0.416c0.38 0.729 0.146 2.072 0.831 2.492 0.047 1.062 0.763 1.455 1.247 2.078 0.389 1.414 1.278 2.322 2.491 2.91 0.062 0.908 1.051 0.895 2.078 0.832-0.074 0.906 0.342 1.322 1.248 1.246 1.744 0.461 4.885 1.313 6.65 0.416 1.671 0.146 3.042-0.008 3.325-1.246 0.308-0.664 2.034 0.094 1.663-1.248 0.943-0.303 1.242-1.25 1.662-2.078 0.254-0.021 0.492-0.062 0.416-0.416h0.416c0.119-1.127 0.535-1.959 1.246-2.494v-0.83s0-0.555 0-0.832c0.418 0.002 0.494-0.336 0.832-0.414v-1.248c0.379-0.283 0.396-1.654 0.416-3.326h-0.416c0.649-3.029 0.396-5.951-1.248-8.312 0.145-1.535-1.693-2.342-2.494-1.664-2.59 0.731-7.596 2.705-12.885 1.248h-0.44zm-105.17 9.56c2.679-2.361-0.087-5.564 0.416-8.729-0.482-0.35-1.114-0.549-2.078-0.416 0.305 2.758-1.285 1.15-2.494 2.078 0.237 0.377 1.714 1.529 0.831 1.662-0.303-0.943-1.25-1.242-2.078-1.662-0.35 1.605-3.999 1.607-4.988 1.246-0.065 0.488 0.071 1.182-0.416 1.248-0.508-1.268-1.586 0.607-2.078-0.416-0.778-0.021-0.88 0.318-0.416 0.83-2.722-0.553-3.965-0.939-5.819-1.662-0.615-0.48-1.048-0.48-1.663 0-0.671 1.824-1.418 3.57-1.663 5.82 0.447 2.125-0.178 2.739 0.416 4.57 0.54 6.684 4.398 12.207 11.639 10.809 0.252 0.24 1.972 0.975 2.078 0 0.009-1.791 3.12-0.48 2.91-2.492 0.253-0.023 0.492-0.062 0.416-0.416 1.16-0.779 1.494-2.387 2.91-2.91-1.035-0.168-0.024-1.609 0.832-1.246v-3.326c0.253-0.021 0.492-0.061 0.416-0.416-0.333-1.439 0.619-1.598 0.416-2.908v-0.832c0.32-0.09 0.48-0.34 0.41-0.83zm93.95-7.89c-1.33-1.562-4.646-0.269-4.571 2.078 0.53 0.022 0.574 0.532 1.246 0.416 0.701 1.61 1.805 6.461 3.741 4.157-1.51-1.44 0.76-5.57-0.42-6.66zm-12.06 1.24h-1.663v6.649h0.416c0.093 0.787-0.469 0.918-0.416 1.662v1.248c-1.814 4.661-5.92 8.899-11.225 8.729h-1.246c-0.094 0.785 0.469 0.916 0.416 1.662 1.019 6.879 4.942 10.852 12.887 10.809 6.789-0.416 10.188-4.223 12.055-9.562 1.059-1.014 0.438-2.467 0.831-3.323 0.324-0.093 0.483-0.351 0.416-0.832h-0.416v-1.662c0.358-2.229-0.298-5.582-2.078-8.729 0.054-0.746-0.413-0.974-1.247-0.832 0.086-1.192-0.104-2.11-0.83-2.494h-1.664c2.83-3.24-3.63-2.96-6.25-3.34zm-58.61 23.28h0.416c5.103-6.562 3.765-15.119 2.079-22.446-0.964 0.133-1.596-0.066-2.079-0.414 0.117 1.688-0.151 0.938-1.247 0.83 0.934 1.477-1.921 1.143-3.741 1.247-0.065 0.488 0.072 1.181-0.416 1.246-0.406-1.377-0.822 0.466-1.247 0.416 0.157-1.737-1.511-0.452-1.663 0-0.913-1.407-3.593-0.896-4.157 0-1.727-1.459-4.428-1.944-6.235-3.325-0.785 1.571-1.716 2.995-2.079 4.987-0.253 0.022-0.492 0.062-0.416 0.416-0.222 1.252-1.457 2.998-1.247 5.817 0.031 0.728-0.093 1.293-0.416 1.664v1.662c0.071 1.176-0.358 2.854 0.831 2.91 1.389 6.856 9.124 10.407 15.796 8.312 0.622-0.07 1.534 0.147 1.663-0.416 1.56-0.82 3.02-1.72 4.17-2.92zm-47.803-19.54c-2.346-0.269-2.497 1.66-3.326 2.91-7.995-6.235-23.626-5.112-31.592 0.416 0.666 1.272 2.207 1.672 2.494 3.325-5.045 1.052-9.208 2.984-11.224 7.064 1.962 0.672 4.172 1.094 4.573 3.323-0.458 1.481-2.79 1.093-4.157 1.664-0.111 2.938-3.272 2.824-4.573 4.572 0.561 0.823 2.902-0.132 2.91 1.245v2.494c-4.312 0.955-7.74 2.791-9.146 6.651 1.948 0.269 4.978-0.545 6.235 0.414-3.271 4.226-6.663 7.218-8.729 13.304 2.146 3.168 11.851 2.75 14.133 0 2.531 3.377-1.172 5.438-2.494 7.481 0.704 1.062 2.775-0.896 3.325 0.832 0.019 2.832-2.348 3.918-1.247 6.649 1.531 0.547 3.218 0.938 5.404 0.83 0.805-1.688 3.006-1.979 4.988-2.494 0.328 2.961-1.375 3.892-2.078 5.819 0.746 1.472 2.835 1.599 3.325 3.324-1.197 1.907-2.847 4.918-2.078 7.481 2.697 1.844 6.948-1.644 7.898 0.832-1.319 3.394-3.945 5.478-3.741 10.394 3.184 0.022 4.271 1.332 7.482 0.416 0.559 4.438-2.295 5.463-2.079 9.562 2.563 0.493 5.239-1.449 6.651 0.416-1.396 3.553-1.822 9.743-0.416 13.717 4.966 0.396 4.058-5.088 8.314-5.401-1.5 7.69 2.006 11.144 1.663 18.705 2.392-1.904 6.74-1.853 7.898-4.988 5.034 0.322 5.417-4.004 9.977-4.155 0.025 1.637 0.482 2.844 1.663 3.325 3.334 0.146 3.969-2.405 6.235-3.325 2.004-0.343 0.812 2.514 2.494 2.493 0.786 0.095 0.917-0.469 1.663-0.416-0.737-7.44-0.529-17.672 3.741-22.446-9.104 1.623-11.209-3.756-14.965-7.479-0.057 1.467-1.189 1.856-1.247 3.323 2.901 3.796 7.02 10.654 5.82 15.796-1.953-0.121-1.998-2.949-1.247-4.57-1.816-2.758-2.449-6.694-5.404-8.313-5.103 6.397-5.232 17.771-11.224 23.279 0.776-8.104 5.268-16.062 7.482-24.109-6.545-0.588-8.1 3.816-12.886 4.988-1.346-4.312 5.212-4.17 6.651-7.067 2.51-0.397 4.972-0.849 7.482-1.246 3.624-5.384 4.779-13.231 8.313-18.705-1.379-2.655-5.136-4.933-7.066-4.571-0.339-3.681-2.584-5.453-3.741-8.313-8.028 2.313-15.255 6.028-20.784 10.809-1.73 1.496-2.856 4.851-5.82 4.156 1.033-3.263 3.533-5.058 5.404-7.479 4.212-2.162 8.276-4.476 11.639-7.481 4.234-0.341 6.807-2.339 9.977-3.74-0.406-4.394 2.81-7.735 2.494-12.058-0.318-4.356-3.545-7.481-2.91-12.055 0.521-3.748 2.898-4.851 4.157-9.146-17.2 0.121-24.61 10.029-27.851 24.107-2.591-2.762 0.129-6.826 1.247-9.979 1.322-3.721 3.278-6.918 4.157-9.145-10.521 4.027-20.774 8.324-28.267 15.381-1.551 0.164-2.439-0.332-2.494-1.662 3.14-1.295 2.849-6.021 7.898-5.404 2.171-2.68 5.009-4.688 9.145-5.402 2.011-4.361 9.537-3.211 12.471-6.648h4.157c3.881-3.463 11.979-2.709 16.627-5.404-5.749-3.01-4.873-10.6-5.393-18.3zm157.54 32.01c1.111-0.271 1.58-1.188 2.492-1.662-2.366-9.646-1.396-20.403-9.975-24.108-1.925 7.64-5.133 13.991-14.553 14.133 1.408 4.138 5.812 5.274 9.562 7.065 1.274-1.178-0.703-3.139 0.414-4.155 4.86 2.1 7.72 6.17 12.07 8.74zm-65.68-6.65c0.619-4.082-0.021-7.922-0.832-10.809-3.157 0.951-2.772-1.264-6.234-0.832-3.921-7.508-7.618-1.012-12.055 1.664h-5.819c-0.571 0.018-0.913-0.197-1.247-0.416-0.143 3.689-1.376 6.404 0 9.561 0.053 4.004 3.034 8.578 6.65 10.393 0.529 0.994 1.354 1.693 2.91 1.662 1.563 1.535 5.146 0.557 7.064 0 0.253-0.021 0.491-0.062 0.415-0.414 1.405 0.156 1.771-0.721 2.494-1.248 0.846-0.87 3.792-1.203 2.494-2.908 2.379-0.255 2.021-3.244 3.323-4.572 0.2-0.78 0.92-1.04 0.85-2.07zm-32.42-10.39v-2.078c-0.85-0.299-1.646-1.304-2.495-0.416 1.168-1.127 0.329-1.033 0-2.494-2.657 1.854-2.283 4.099-3.325 7.065h-0.416c-0.769 0.062-0.255 1.408-0.831 1.664 1.601 1.074 3.418-0.147 4.157 1.246v0.416c-0.006 1.858-6.685-0.158-4.157 1.662-4.49 0.5-6.385 3.592-9.977 4.987h-1.247c0.301 1.271-0.717 1.224-0.416 2.494 0.367 5.703-2.383 9.262-3.325 11.226-0.742 1.437-0.122 2.879 0.832 3.739 1.185 4.065 6.201 8.312 11.223 5.817 1.025 0.056 2.003 0.062 2.494-0.413 0.97-0.142 1.791-0.429 2.079-1.248 0.023-0.255 0.062-0.492 0.416-0.416 2.671-0.933 3.389-3.816 4.987-5.818 0-0.418 0.338-0.493 0.416-0.832 0.967-0.42 1.34-1.432 1.248-2.907-0.433-1.955 1.444-1.603 0.83-3.742v-3.325c0.139-1.662-0.74-2.308-0.416-4.156-0.416 0.002-0.494-0.336-0.83-0.416 0.018-0.571-0.197-0.912-0.416-1.246 0.312-2.989-2.135-1.139-3.329-2.077 1.54 0.301 1.269-1.177 1.247-3.326-0.001-0.416 0.335-0.494 0.417-0.832 0.179-0.791 0.896-1.043 0.832-2.077-0.21-1.3 0.91-1.62 0-2.49zm63.18-2.91h-1.663v2.494h1.663c-0.03-1.55-0.46-1.18 0-2.49zm-58.61 3.33c-0.415-1.718-1.245-0.604-2.493-1.662-0.572 0.535-0.412 1.805-0.416 2.91 0.164 0.715-0.617 1.062 0 1.245v0.416c-0.865 1.994-0.539 2.808-0.416 5.404h0.832c1.312 1.047 1.361 3.35 2.078 4.985 0.501 2.133 0.34 4.926 1.662 6.233 1.926-1.528 0.393-3.565-0.415-5.817 0.134-2.211-1.351-2.808-1.247-4.985-0.38-3.39 0.99-5.87 0.43-8.72zm58.61 2.07c-0.646-0.603-1.113-1.381-2.078-1.661 0.031 0.725-0.094 1.293-0.416 1.661-0.35 0.481-0.549 1.115-0.416 2.078 0.16 2.345-3.072 3.457-1.247 4.987h-0.415c-1.748 1.332-1.867 2.269-3.74 2.91h-0.832c-0.037 0.654-1.061 0.324-0.832 1.246 3.111 0.521 6.141-1.297 7.066 0.416-2.493-0.274-4.057 0.377-6.234 0.416-2.914-1.481-3.672 1.601-7.896 0.832-0.116 0.944 0.103 1.562 0.831 1.662-0.071 1.041 0.931 1.008 1.244 1.661v0.83c0.061 0.774 0.273 1.392 0.832 1.664v0.414c0.078 0.324-0.156 1.879 0.416 2.91 0.039 0.653-0.057 1.44 0.83 1.247-0.021 0.531-0.529 0.576-0.414 1.246h2.078c1.85 1.283 5.896 1.562 7.897 0 0.417 0.002 0.494-0.336 0.831-0.415 0.322-0.093 0.82-0.011 0.831-0.415 2.075-1.526 3.321-3.885 4.571-6.235v-1.246c0.324-0.092 0.481-0.35 0.416-0.832v-0.413c0.617-0.078 0.382-1.007 0.416-1.664v-2.494c-0.023-3.252-0.575-3.433-1.246-5.817-1.076-1.285-0.604-2.229-1.663-2.91 0.33-1.28-1.12-0.8-0.82-2.08zm-100.18 2.08h-0.831c-6.682 0.662-11.663 3.024-13.718 8.313-1.468 1.164-1.832 3.435-1.663 6.231 0.038 1.138-0.692 0.839 0 1.664 0.228 0.604-0.485 2.147 0.416 2.078 1.214 6.854 10.893 8.903 16.212 7.897 0.253-0.022 0.492-0.062 0.416-0.416h2.079c0.491-0.201 0.942-0.442 1.247-0.832 0.724 0.031 1.292-0.092 1.663-0.416 0.255-0.575 1.6-0.062 1.663-0.83 1.438-1.194 3.855-1.409 4.157-3.741 3.479-3.185 3.845-7.547 4.573-12.886-1.312 0.203-1.468-0.75-2.91-0.416-0.093 0.322-0.012 0.82-0.416 0.83-0.093-0.321-0.011-0.819-0.416-0.83h-0.416c-0.108-0.647-0.912-0.288-1.247 0-0.555-1.245-2.113-1.489-2.91-2.493-0.023 0.254-0.062 0.491-0.416 0.416-1.88-1.88-3.36-6.24-7.47-4.56zm74.83 8.31v-0.416c-1.179 0.07-0.811-1.406-2.494-0.832 0.365 1.334-1.078 0.861-1.246 1.662 0.646 0.107 0.289 0.912 0 1.248 0.201 1.311-1.273 0.939-0.832 2.494h-0.416c-0.188 3.826-3.834 4.199-5.4 6.65-0.646 0.105-0.288 0.909 0 1.246h0.415c0.942 3.354 2.315 6.271 3.323 9.562 1.271-0.304 1.518 0.424 2.494 0.416h0.416c0.447 0.688 3.709 0.688 4.156 0h0.416c0.533-0.716 2.485-0.011 2.494-1.248 0.322-0.095 0.819-0.013 0.831-0.416 0.255-0.576 1.601-0.062 1.663-0.83-0.123-1.095 1.611-0.328 1.247-1.664h0.415c0.492-1.586 1.604-2.553 1.247-4.985 0.838-1.562-0.724-5.134 0-6.651-1.851-2.906-4.642-4.017-7.897-6.234h-0.83zm-15.8 13.31c-5.597 0.381-9.675-3.742-14.965-4.988-1.61 2.686-3.381 5.209-4.155 8.729v0.414c-1.416 0.283 1.83 1.383 0.414 1.664-0.061-0.91-1.047-0.896-2.078-0.832 0.219 1.442 1.396 1.935 2.078 2.91-0.549 0.004-0.38 0.729-0.83 0.832-0.508 0.047-0.984 0.123-0.832 0.83 0.064 0.487-0.072 1.18 0.416 1.245-0.061 0.492-0.74 0.942 0 1.248-0.199 1.31 0.592 1.625 0.832 2.494-0.003 0.416 0.336 0.494 0.414 0.83 0.079 1.586 0.592 2.735 2.079 2.909-0.303 1.136 0.826 0.839 0.831 1.664 1.24-0.008 1.413-1.082 2.494-1.248 0.062 1.033 1.406 0.121 1.663 0 0.562-0.131 0.794-0.592 1.661-0.416h5.404c0.383 0.728 1.301 0.918 2.494 0.832 0.979 0.82 2.161 1.438 3.323 2.078 0.25-0.858 0.646-1.573 2.078-1.246 0.642-2.385 0.521-3.631 2.494-4.157 0.198-2.964 2.101-9.154 0-12.472-0.187-1.062-0.582-1.91-1.246-2.494 0.257-3.862-2.464-1.555-4.157-0.829-0.1 0.03-0.24 0.03-0.38 0.03zm-43.65 12.47c1.368-0.437 2.314-1.289 2.91-2.493-1.677-1.466-2.018-1.837-2.494-4.158-0.729-0.379-2.074-0.144-2.494-0.83 0.622-0.071 1.534 0.147 1.663-0.416-0.776-0.748-0.581-2.469-2.494-2.078-1.417 1.449 0.026 3.111 0.416 4.988v0.83c1.159 1.414-0.073 2.928 0.832 4.157-0.07 1.83 1.17 0.12 1.65 0zm-27.43-7.49v-0.416c-0.618-0.652-1.857-0.463-1.663 0.832-1.2 0.324-1.037 2.01-1.663 2.91v0.83c-0.396 0.607-1.394 2.719-0.416 3.326-0.333 2.125-0.362 4.266 0.416 6.232 0.82 4.584 4.078 6.73 7.482 8.729 1.102 0.852 4.749 1.33 6.235 0.416 5.226-1.01 8.585-3.885 10.392-8.312 2.168-2.951 3.166-9.273 0.832-12.471v-0.416c0.116-0.947-0.1-1.562-0.832-1.662-5.33 4.02-15.43 4.57-20.79 0zm105.58 6.24c-0.131 0.562-0.592 0.796-0.415 1.662 3.307-0.616 0.737-5.099 0.415-7.065-2.095 0.006-4.649-1.709-6.235-0.83 1.41 2.76 3.14 5.19 6.24 6.24zm-60.69 0.83c1.327-2.004 5.096-3.766 4.574-6.235-2.106 3.187-6.373 6.338-9.562 7.065-0.364 1.336 1.078 0.863 1.247 1.664-1.638 0.252-1.841-0.933-2.079-2.078h-2.495c-6.255-0.647-11.068 3.57-13.717 7.896-2.238 1.498-2.021 6.742-2.494 8.729 0.093 0.787-0.469 0.918-0.416 1.664h0.416c0.071 0.621-0.148 1.533 0.416 1.66-0.358 10.803 16.387 15.11 22.031 6.651 1.041 0.07 1.301-0.639 1.663-1.248 0.128-0.979 1.443-0.771 1.247-2.077 2.603-3.578 3.721-10.398 2.911-14.966-1.596-0.594-1.539-4.289-3.327-5.817-1.29-0.043-1.186 1.31-2.91 0.832h-0.416c-0.023-0.531-0.533-0.576-0.416-1.248 0.482 0.351 1.115 0.549 2.079 0.416-0.356-1.326 0.654-1.285 0.832-2.078 0.01-0.38 0.34-0.46 0.42-0.8zm54.04 4.99c0.349-3.117 6.69-0.234 6.648-3.742-5.104 0.258-7.932-9.053-12.055-3.322 1.84 2.31 2.81 5.51 5.41 7.06zm-14.55-4.57c-0.092-1.293-2.065-0.702-3.324-0.832-0.237 0.869-1.028 1.187-0.832 2.494-0.559 0.271-0.771 0.89-0.832 1.662-1.276 3.731-0.756 6.062-3.737 7.065 0.487 0.201 0.938 0.44 1.246 0.832-0.488 0.062-1.183-0.072-1.246 0.414v0.416c0.634 1.723 1.021 3.688 2.078 4.987v0.414c0.709 1.231 0.081 3.801 1.659 4.158v0.415c1.046 0.732 0.295 0.688 0.832 1.662 1.152 0.119 2.9 1.779 3.742 0.832 0.9 0.233 3.402 0.992 4.155 0 1.267-0.121 2.839 0.063 2.91-1.248 0.653-0.039 1.44 0.058 1.247-0.832 0.254-0.021 0.492-0.062 0.416-0.414 0.531-0.022 0.575-0.532 1.247-0.415v-0.832c0.526-0.722 1.403-1.091 1.247-2.492h0.415c0.483-0.069 0.452-0.657 0.416-1.248 1.602-3.213 0.274-6.618 0.415-9.978-1.521-1.942-1.879-5.049-3.74-6.651 0.001-0.416-0.337-0.494-0.416-0.83h-4.988c-0.964-0.133-1.596 0.065-2.078 0.416-0.29 0.01-0.57 0.01-0.85 0.01zm-34.91 2.91c2.229-4.77-6.488-2.188-0.832 0.832 0.228 3.146 2.504 5.346 2.078 7.896 1.739 0.076 1.756-1.568 2.494-2.494-2.51-1.53-1.39-6.3-3.74-6.24zm15.79 4.99c-0.924-0.963-1.621 0.143-2.91 0-1.329 1.078-2.873-0.303-4.988 1.246v0.416c-0.828 0.426-2.125-0.039-2.909 1.248-2.392 2.598-3.71 6.266-4.157 10.807v1.248c0.305 1.441-0.453 3.941 0 4.156-0.182 1.982 0.59 3.014 1.248 4.156 1.703 6.193 7.236 10.771 15.381 9.146h0.414c0.774-0.06 1.393-0.272 1.664-0.832 3.295-1.274 6.137-3.009 6.65-7.065 1.445-1.74 1.332-5.041 1.246-8.312v-0.831c-0.689-0.832 0.035-3.082-0.831-3.74v-0.416c-0.604-0.918-0.28-2.771-1.247-3.323-0.686-0.701-0.902-1.869-1.662-2.494-0.048-0.509-0.125-0.983-0.832-0.832-1.55-2.37-3.89-3.91-7.06-4.62zm-55.7 11.22h-0.416c-1.223 0.718-1.021 2.856-3.326 2.492 0.038 1.135-0.692 0.838 0 1.664-0.417 0-0.495-0.339-0.831-0.416-0.233 0.601-0.648 1.016-1.247 1.245v0.832c-0.252 1.271-0.883 2.166-1.247 3.326v2.494c0.033 5.508 3.861 7.223 7.898 8.729 0.717 0.688 4.271 0.688 4.988 0h0.416c3.142-0.048 4.574-1.802 6.651-2.91 1.713-0.692 2.106-4.058 2.91-3.323-1.714-5.808-5.842-6.636-6.651-13.306 0.419-1.25-0.926-0.733-1.663-0.83-1.217-0.584-2.485-1.117-4.572-0.83h-0.416c-1.06 0.05-1.98 0.24-2.49 0.84zm91.03 6.23c-0.598-2.172-1.297-2.383-2.078-3.742-1.426 0.879-0.584 1.441-2.075 2.078h-0.832c-1.078 2.234-7.265 3.17-3.741 6.236v0.416c1.229 1.047 1.161 4.975 2.91 6.648 0.17 1.004-0.762 0.902-0.416 2.078h1.247c0.094 0.322 0.012 0.818 0.416 0.83 0.046-0.785 1.374-0.287 1.245-1.246-0.32-0.094-0.818-0.012-0.829-0.416 2.347-0.283 3.047-2.219 3.739-4.154 1.502 0.395 0.578-1.641 0.83-2.494 0.615-0.076 0.381-1.004 0.416-1.662 0.045-1.035 0.778-1.287 0-2.078 0.344-1.176-0.586-1.078-0.416-2.078-0.03-0.26-0.07-0.5-0.43-0.43zm-53.2 0.83c-1.496 0.896-2.568 3.365-2.91 4.158-1.177-0.195-2.986 2.547-4.988 2.91h-0.832c-2.6 0.445-5.139 0.098-7.067 0.83-1.24-0.496-1.413-0.113-2.494 0.416 0.239 0.729-0.502 2.439 0.416 2.492 0.965 5.688 4.466 8.838 10.392 9.562 2.247 0.168 4.143-0.014 5.404-0.83 1.955-0.957 3.667-2.154 4.573-4.158 0.664-0.582 1.062-1.432 1.248-2.494 0.961-0.424 0.859-1.908 0.832-3.322-2.352-1.496-2.101-3.639-2.91-7.066-0.479-1.045-0.197-2.852-1.664-2.91v0.41zm36.58 2.08c-0.094-1.293-2.067-0.703-3.326-0.832 0.115 2.746-2.074 4.322-1.66 8.314h-1.247c-0.703 1.443-0.153 1.449 0.831 2.074-1.641 1.104-5.997 2.908-3.741 4.158h-2.494c-0.198 2.166-1.171 2.619-0.415 4.156 3.661 0.08 5.479 2.004 9.146 2.078v0.416c0.42 0.688 1.767 0.451 2.494 0.83-0.074 0.906 0.342 1.322 1.248 1.248h0.416c1.211 0.773 3.613-0.807 3.738-2.494 1.615-0.463 1.771-2.389 2.494-3.742 1.117-0.598 1.378-3.617 0.831-4.572 0.545-0.006 0.526-1.148 0-1.246v-0.83h0.416c-0.229-0.738-0.214-1.729-0.832-2.076v-0.416c-0.718-0.252 0.032-1.975-0.831-2.078 0.17-1.002-0.759-0.904-0.416-2.08-0.68-1.275-1.703-3.9-3.322-2.908h-3.34zm-55.71 11.23c-0.301-0.943-0.371-2.123-0.832-2.906-1.034-0.064-1.287 0.65-2.078 0.828-0.814 0.852-2.455 0.871-2.494 2.494h-1.247c-0.967 0.279-0.313 2.184-2.079 1.662-0.038 1.135 0.692 0.838 0 1.664h-0.416c-1.959 0.535-2.774 2.213-3.326 4.156-0.324 0.092-0.483 0.348-0.416 0.83-0.77 0.756-0.541 2.51-1.247 3.326v0.416c-0.938 0.309-0.163 2.332-0.416 3.322-0.28 2.082 0.385 3.221 0.416 4.988-0.253 0.023-0.492 0.062-0.416 0.416 1.862 1.879 2.073 5.408 5.404 5.82 0.078 1.168 0.723 1.77 2.078 1.662 5.324 1.504 9.336 1.025 12.471-2.494 1.865-0.629 2.864-2.125 3.741-3.742 0.522-0.17 0.85-0.535 0.832-1.246h0.416c0.131-0.562 0.592-0.795 0.416-1.662h0.416c0.131-0.562 0.592-0.795 0.416-1.664 0.484-0.066 0.452-0.654 0.416-1.246 0.177-0.793 1.188-0.752 0.832-2.078-0.091-1.34 0.735-1.76 0.416-3.324h-0.416v-0.414c-0.482-0.352-1.114-0.549-2.079-0.416-1.636-0.256-4.975-2.164-7.898-2.494-0.214-0.775-1.571-3.58-2.494-4.988v-0.832c-0.22-0.62 0.5-2.16-0.41-2.09zm27.44 1.25c-0.102-0.729-0.716-0.945-1.663-0.832-0.332 0.777-0.694 1.521-0.831 2.494-0.727 0.383-0.918 1.299-0.832 2.494-2.312 1.566-4.154 3.604-6.65 4.988-1.081-0.25-1.496 0.166-1.247 1.246-0.242 1.027-1.506 3.174-0.416 4.154 1.017 7.717 5.208 12.252 12.055 14.137 0.715 1.086 2.152-0.586 3.741 0h0.416c0.976-0.135 1.562-0.656 2.909-0.416 0.094-0.322 0.012-0.82 0.416-0.832 1.531-0.545 2.772-1.381 3.74-2.494 0.254-0.023 0.49-0.062 0.416-0.414 0.606-0.363 1.315-0.623 1.248-1.664v-0.416c1.063-0.041 0.668-1.549 1.244-2.078 0.396-0.85 0.852-1.645 1.247-2.494 0.55-1.488-0.026-1.521 0.416-2.91v-2.074c0.001-0.418-0.337-0.494-0.416-0.832 0.128-1.518-0.063-2.705-0.416-3.74 0.312-1.279-1.141-0.799-0.831-2.08v-0.414c-0.844-0.266-0.271-1.943-1.244-2.08-0.871-0.16-2.078 0.957-3.326 0.416-0.416 0.002-0.494-0.336-0.832-0.416-0.481 0.354-1.113 0.549-2.078 0.416-0.16-0.709-1.959-1.867-2.493-0.83h-0.416c-0.293-1.092-1.95-0.818-2.494-1.664v-0.414c-0.42-0.6-1.42-0.58-1.68-1.28zm22.45 8.72c-0.254-0.023-0.492-0.062-0.416-0.414-1.896 0.373-2.355-0.693-3.741-0.832-0.921 3.746 1.108 6.948 0.415 10.394-0.102 2.5-1.439 2.933-0.415 4.987-1.364-0.065-1.995 1.697-1.247 2.494-1.699-0.453-1.062 1.43-2.078 1.662-0.254 0.022-0.492 0.062-0.416 0.416 0.002 0.415-0.337 0.493-0.416 0.831-1.345-0.516-0.316 1.345-1.662 0.83h-0.416c0.127 0.959-1.201 0.464-1.246 1.248-0.254 0.021-0.492 0.062-0.416 0.416 0.623 0.623 0.744 1.75 1.662 2.076 0.023 0.256 0.062 0.491 0.416 0.416 1.561 0.799 2.479 2.229 4.156 2.909 0.833 1.244 2.779 1.379 4.572 1.662 4.079 1.086 7.814-0.494 9.562-3.739 0.562-0.408 0.83-1.109 1.244-1.664 0.812-1.269 1.385-2.771 1.247-4.986 0.595-0.557 0.595-2.354 0-2.909v-2.078c0.062-1.035-0.651-1.287-0.832-2.078 0.312-1.278-1.141-0.799-0.83-2.077-1.59-4.52-6.95-6.91-9.11-9.57zm-25.77 32.43c2.006-1.978 2.907-6.453 2.494-9.562-3.443-1.545-6.639-3.338-9.145-5.817-0.132-1.83-0.599-4.726-2.91-6.236-0.84 3.039-3.937 3.822-4.157 7.482-3.031 1.401-6.378 2.489-8.314 4.987v0.83c-0.202 4.642 1.947 10.521 6.235 12.058 0.273 0.557 0.889 0.772 1.663 0.83 0.07 0.483 0.657 0.452 1.247 0.415 0.052 0.919 1.763 0.179 2.494 0.416h0.416c0.747 0.854 3.857 0.556 4.157-0.416 3.01-0.59 4.78-2.42 5.82-4.99zm9.56-8.73c-0.993 0.256-3.016-0.52-3.325 0.416-0.132 0.562-0.593 0.795-0.415 1.664-0.324 0.094-0.482 0.35-0.416 0.83v1.664c-0.77 0.062-0.255 1.406-0.831 1.662-0.366 3.098-2.624 4.305-2.91 7.482v0.416c-0.683-0.068-0.683 2.561 0 2.49-0.017 1.268-0.241 2.736 1.247 2.494 0.572 0.953 2.072 0.979 2.494 2.078 1.188 1.029 2.277 2.156 2.91 3.742v1.246c0.531 0.021 0.574 0.533 1.246 0.416v0.416c0.912 0.473 1.699 1.07 3.326 0.832 0.336-2.119 2.707 0.029 2.91-2.494 2.416-1.465 3.532-4.227 3.738-7.898v-2.078c0.148-1.492-0.667-3.143-1.247-4.986-0.048-0.506-0.125-0.984-0.832-0.83-0.135-1.342-1.921-2.277-0.413-2.91-1.859-0.773-1.498-3.768-2.91-4.988-1.045-0.613-1.234-2.092-3.324-1.664-0.61-0.16-0.72-0.5-1.26 0zm-2.91 34.5v-4.571c-1.154-2.63-2.931-2.937-3.325-7.066-1.368-0.854-8.164-3.522-6.65-2.079-0.992-0.945 0.649-2.039-1.248-0.414v-1.248c-4.85-0.994-9.237 1.078-10.392 3.325-2.645 0.679-4.532 2.56-3.326 4.988-1.279-0.312-0.799 1.142-2.078 0.83-0.779 2.717-1.513 5.153-1.247 7.896v0.416c-1.027 2.977 0.482 6.994 2.494 8.312 4.243 7.6 18.941 6.873 22.447-0.83 0.559-0.275 0.773-0.889 0.831-1.664 1.207-1.01 1.604-2.83 2.078-4.572 0.95-0.31 0.17-2.34 0.43-3.33z" fill="#0F0A16"/>
	<path d="m97.271 253.98c-4.648 2.694-12.747 1.938-16.627 5.404h-4.157c-2.934 3.438-10.459 2.286-12.471 6.649-4.136 0.713-6.974 2.726-9.145 5.401-5.049-0.614-4.758 4.108-7.898 5.404 0.055 1.329 0.942 1.827 2.494 1.661 7.493-7.057 17.747-11.353 28.267-15.381-0.879 2.228-2.835 5.424-4.157 9.146-1.118 3.149-3.838 7.215-1.247 9.979 3.241-14.08 10.651-23.99 27.851-24.108-1.258 4.297-3.636 5.396-4.157 9.146-0.635 4.571 2.591 7.696 2.91 12.057 0.315 4.318-2.9 7.662-2.494 12.056-3.169 1.401-5.742 3.401-9.977 3.74-3.363 3.01-7.427 5.319-11.639 7.481-1.871 2.426-4.371 4.221-5.404 7.481 2.964 0.69 4.089-2.662 5.82-4.156 5.529-4.778 12.756-8.493 20.784-10.81 1.157 2.861 3.402 4.636 3.741 8.312 1.93-0.357 5.688 1.915 7.066 4.571-3.534 5.474-4.69 13.321-8.313 18.705-2.51 0.399-4.972 0.851-7.482 1.248-1.439 2.896-7.997 2.756-6.651 7.065 4.787-1.172 6.341-5.576 12.886-4.988-2.215 8.048-6.707 16.007-7.482 24.109 5.992-5.509 6.121-16.882 11.224-23.277 2.955 1.617 3.588 5.558 5.404 8.312-0.751 1.623-0.706 4.449 1.247 4.572 1.2-5.142-2.918-12-5.82-15.798 0.058-1.467 1.19-1.856 1.247-3.323 3.756 3.728 5.861 9.104 14.965 7.481-4.271 4.772-4.479 15.006-3.741 22.447-0.746-0.056-0.877 0.508-1.663 0.413-1.682 0.021-0.49-2.834-2.494-2.493-2.267 0.922-2.901 3.473-6.235 3.325-1.18-0.481-1.637-1.688-1.663-3.325-4.559 0.151-4.942 4.479-9.977 4.157-1.158 3.138-5.506 3.084-7.898 4.985 0.343-7.562-3.163-11.012-1.663-18.704-4.256 0.315-3.348 5.797-8.314 5.403-1.406-3.974-0.98-10.164 0.416-13.719-1.412-1.863-4.087 0.079-6.651-0.416-0.217-4.097 2.638-5.121 2.079-9.562-3.211 0.916-4.299-0.392-7.482-0.416-0.204-4.914 2.422-6.998 3.741-10.394-0.95-2.476-5.201 1.014-7.898-0.832-0.769-2.562 0.881-5.572 2.078-7.479-0.49-1.729-2.58-1.854-3.325-3.326 0.703-1.93 2.406-2.858 2.078-5.817-1.982 0.513-4.184 0.806-4.988 2.494-2.186 0.106-3.873-0.285-5.404-0.832-1.101-2.731 1.266-3.818 1.247-6.649-0.55-1.728-2.621 0.229-3.325-0.832 1.321-2.043 5.024-4.104 2.494-7.479-2.282 2.75-11.987 3.168-14.133 0 2.066-6.086 5.458-9.078 8.729-13.306-1.258-0.959-4.288-0.146-6.235-0.414 1.406-3.858 4.833-5.696 9.146-6.649v-2.494c-0.008-1.379-2.35-0.422-2.91-1.248 1.301-1.748 4.461-1.635 4.573-4.569 1.367-0.572 3.699-0.185 4.157-1.664-0.4-2.229-2.611-2.653-4.573-3.323 2.016-4.082 6.179-6.017 11.224-7.066-0.287-1.653-1.828-2.053-2.494-3.325 7.966-5.528 23.597-6.651 31.592-0.416 0.829-1.25 0.979-3.179 3.326-2.91 0.497 7.7-0.379 15.29 5.381 18.29z" fill="#67831E"/>
	<path d="m196.62 112.65c-0.37 0.184-0.743 0.365-0.831 0.831-2.241-1.361-3.037-4.168-5.404-5.404 4.085-6.724 9.003-12.613 14.966-17.458 0.813 1.477-0.543 1.511-0.416 3.325 2.618 1.457 3.496-1.726 4.988-2.91 3.279-2.604 7.719-3.793 12.055-5.404 1.652 1.175 0.701 1.731 0.416 3.741 3.252 1.572 3.703-2.46 6.65-2.494-0.87 0.919-0.325 2.768 0.416 3.325 3.871-2.502 8.814-3.933 14.549-4.572 1.989 3.579-2.902 4.167-1.246 7.482 3.438-0.437 5.84-3.676 9.979-2.079 0.435 0.951 0.264 2.507 0.828 3.326 3.758-0.818 8.898-0.248 13.305-0.416-0.396 1.679-0.85 3.309-1.247 4.988 0.254 1.687 2.856 1.022 4.157 1.663 0.076 4.995 7.734 4.291 11.224 7.067 0.041 1.704 0.082 3.407-0.416 4.572-0.094 1.154-1.315 1.176-1.659 2.079-0.271 6.38-4.606 8.696-7.482 12.471 0.357 1.166 2.164 0.884 2.908 1.663-3.938 5.069-8.854 9.16-14.965 12.055-2.858-0.731-5.545-3.737-8.729-1.663 1.616-6.048-0.045-13.699-2.494-19.122 2.584-0.578 3.406 2.242 4.987 3.326 2.197 1.505 5.443 1.746 7.066 4.157 0.262 1.541 0.288 3.313 1.661 3.741 1.959-5.552-6.733-7.304-7.481-12.886 6.896-1.418 13.033-3.596 17.875-7.066-7.688-1.657-23.933 10.754-31.592 4.157 0.066-0.483-0.093-0.74-0.416-0.832 3.172-5.28 7.278-9.625 7.896-17.458-5.486 2.409-3.657 12.139-10.393 13.302-2.025-4.35-4.248-10.716-9.562-10.392-0.562-0.129-0.345-1.041-0.416-1.663-4.093-0.341-7.401-1.464-12.055-1.247-1.263 0.343-1.979 2.705-3.741 1.247-2.564 2.283-5.006 4.693-6.232 8.313-0.774 0.057-1.393 0.273-1.664 0.832h-0.414c-2.89-0.115-3.625 1.918-4.988 3.325-1.06 0.35-1.26 1.53-2.11 2.07z" fill="#67831E"/>
	<path d="m281 160.46c-0.244 1.418-2.648 0.677-2.494 2.494 4.896 3.973 11.62 6.116 14.133 12.471-0.369 1.848-2.33 2.103-3.324 3.326 0.498 1.996 2.472 2.519 2.91 4.572-0.539 3.573-4.465 2.092-6.649 3.326-0.013 2.366 1.896 2.818 3.739 3.325 2.925 2.62 5.777 5.307 7.065 9.562-2.784-0.429-4.321 0.389-4.987 2.079 1.229 3.343 4.602 4.546 4.987 8.729-1.3 0.779-3.86 0.295-4.987 1.246 0.949 3.381 3.932 8.24 2.91 14.965-1.271 0.302-1.224-0.717-2.494-0.416-0.055 4.767 1.983 7.439 2.494 11.64-3.971 0.582-2.889-1.31-6.652-0.83 1.664 7.492-0.211 14.195 0 22.447-8.713-0.293-14.344 2.36-22.028 0 0.104 1.838 0.854 3.026 0.832 4.987-5.562 0.269-9.155 0.031-13.719-2.494-0.481-3.812-1.125-7.467-0.831-12.055 6.225 1.412 11.479-0.726 14.965-3.326 0.443-2.188 1.32-3.942 3.738-4.155 3.115 4.782 8.785 7.01 10.396 13.301h3.325c-0.133-0.963 0.064-1.596 0.416-2.076-0.898-0.622-2.34-0.711-3.741-0.831 0.021-4.595-3.864-5.279-4.569-9.146-1.912-2.384-5.211-3.382-5.404-7.48 4.514-0.159 9.354 2.054 13.302 0 2.707-1.407 2.789-4.223 5.403-5.819 2.701-10.967-1.473-18.312-5.818-24.525-0.771-0.893-3.281-0.045-2.91-2.079-3.662-0.217-7.678-0.082-9.146-2.494 5.622-4.379 11.563-10.572 9.146-21.616-1.592-2.98-3.816-5.327-4.988-8.729-2.287-2.008-4.27-4.321-8.312-4.572 0.115-1.086 0.142-2.081-1.247-1.663 1.172-4.644 1.646-10.021 0.415-14.965 4.604-0.309 6.127 2.464 9.562 3.325 0.055 1.578-1.883 1.167-2.08 2.494 1.59 2.3 5.78 1.99 6.66 4.99z" fill="#67831E"/>
	<path d="m88.541 89.373c-0.617 0.181 0.164 0.532 0 1.247-6.383 1.376-8.892 6.627-10.808 12.47-5.014 0.032-14.035-2.397-16.212 3.326h-2.079c-1.322 3.25-3.318 5.827-5.404 8.313-4.148-0.701-7.087-2.612-9.977-4.572-1.453 0.496-1.162 1.423-0.416 2.494 4.514 1.167 7.644 3.718 11.224 5.819-0.61 5.459 2.355 7.344 3.741 10.808-2.199 2.149-4.754 5.278-8.314 5.404-3.38 0.119-7.833-3.2-13.718-2.494-3.38 0.406-4.371 2.019-7.898 3.326-2.781 3.508-5.599 7.707-4.988 13.717 0.282 2.773 2.597 5.158 1.247 7.898-3.772-0.801-7.434-1.711-12.471-1.247 0.581 4.298 9.47 3.811 15.796 3.741-3.373 4.626-5.391 14.785-1.663 20.369 2.114 3.165 5.689 3.613 6.651 6.651 3.07-1.273 5.132 1.323 8.313 1.247-3.15 5.136-3.84 13.653 0 18.706-4.815 0.24-10.703-2.042-13.302-5.404 0.468-2.858 3.594-3.057 4.572-5.404-0.383-1.28-1.664-1.662-2.494-2.494 0.797-1.004 2.832-0.771 2.91-2.494-3.927-4.387-13.35-3.278-14.133-10.808 1.126-0.609 3.351 0.119 4.572-1.247-2.445-4.622-8.844-5.289-9.561-11.639 0.123-1.679 3.393-0.21 2.91-2.494-2.503-4.757-11.297-4.015-11.224-9.977 0.021-1.625 3.285-6.729 5.404-8.314 1.87-1.398 4.949-1.06 5.819-3.325-0.997-1.636-3.209-2.056-4.573-3.326 1.706-4.252 6.204-5.713 10.808-7.066-0.777-1.44-2.438-1.997-4.573-2.079-0.053-0.746 0.509-0.877 0.416-1.663 1.857-2.022 5.581-2.179 7.482-4.157-0.252-2.242-2.981-2.006-2.91-4.572 4.397-3.085 12.067-2.898 17.875-4.573-1.481-2.537-5.246-2.791-5.404-6.651 2.913-3.876 7.028-6.551 13.718-6.651 0.994-1.043-1.051-1.392-0.832-2.91 5.695-1.559 7.801-0.385 13.718 0 0.057-2.413-1.951-2.76-3.741-3.325 0.117-0.671-0.393-0.716-0.416-1.247 1.209-2.255 5.321-1.607 7.066-3.326 0.106-1.63-1.503-1.545-1.247-3.325 5.976-2.934 13.978-1.185 19.537 0.831 1.326-1.354-0.649-2.932-0.416-4.572 4.126-0.431 9.314 0.677 11.224 3.741-0.993 1.311-4.633 1.832-6.229 1.226z" fill="#67831E"/>
<g fill="#834631">
	<path d="m196.17 10.441l-2.131-3.078h-3.078s-7.814 1.895-13.261 4.025-10.894 5.919-10.894 6.867 1.07 1.398 1.07 1.398 9.555-5.033 12.885-5.82c3.34-0.787 15.41-3.392 15.41-3.392z"/>
	<path d="m166.1 22.044l-2.793-1.144-8.572 1.144 0.709 1.657 3.315-0.474 1.638 1.414-2.584 2.612-4.025 0.237-0.039 1.723 2.17 0.645s-3.643 10.155-3.834 11.826-2.323 10.669-1.139 19.667c1.184 8.998-0.711 5.209-0.711 5.209l-2.604 2.841 2.131 1.895 2.368-2.605 2.864 3.754 2.817-2.097s-2.842-4.025-2.842-5.446-2.604-9.708 1.895-24.153c4.48-14.445 9.22-18.705 9.22-18.705z"/>
	<polygon points="150.42 25.888 150.84 23.81 148.76 21.731 141.24 20.86 143.13 23.701 147.09 24.225 147.39 26.306"/>
	<polygon points="153.79 20.149 152.92 17.99 159.94 17.308 159.98 18.405"/>
	<polygon points="154.99 86.578 155.21 81.952 153.31 79.821 153.08 86.688 154.02 87.872"/>
	<polygon points="135.79 90.477 134.61 88.583 130.58 94.976 127.98 98.054 126.79 96.87 124.42 101.84 125.9 102.37 131.71 98.218 131.76 95.923"/>
</g>
<metadata><rdf:RDF><cc:Work><dc:format>image/svg+xml</dc:format><dc:type rdf:resource="http://purl.org/dc/dcmitype/StillImage"/><cc:license rdf:resource="http://creativecommons.org/licenses/publicdomain/"/><dc:publisher><cc:Agent rdf:about="http://openclipart.org/"><dc:title>Openclipart</dc:title></cc:Agent></dc:publisher><dc:title>grape cluster</dc:title><dc:date>2007-10-30T00:32:36</dc:date><dc:description>clip art, clipart, externalsource, food, food, fruit, fruit, grapes, grapes, image, media, plant, plant, png, public domain, svg, vine, vine, </dc:description><dc:source>http://openclipart.org/detail/7521/grape-cluster-by-johnny_automatic</dc:source><dc:creator><cc:Agent><dc:title>johnny_automatic</dc:title></cc:Agent></dc:creator><dc:subject><rdf:Bag><rdf:li>clip art</rdf:li><rdf:li>clipart</rdf:li><rdf:li>externalsource</rdf:li><rdf:li>food</rdf:li><rdf:li>fruit</rdf:li><rdf:li>grapes</rdf:li><rdf:li>image</rdf:li><rdf:li>media</rdf:li><rdf:li>plant</rdf:li><rdf:li>png</rdf:li><rdf:li>public domain</rdf:li><rdf:li>svg</rdf:li><rdf:li>vine</rdf:li></rdf:Bag></dc:subject></cc:Work><cc:License rdf:about="http://creativecommons.org/licenses/publicdomain/"><cc:permits rdf:resource="http://creativecommons.org/ns#Reproduction"/><cc:permits rdf:resource="http://creativecommons.org/ns#Distribution"/><cc:permits rdf:resource="http://creativecommons.org/ns#DerivativeWorks"/></cc:License></rdf:RDF></metadata></svg>
